<?xml version="1.0" encoding="utf-8"?>
<!-- Generator: Adobe Illustrator 16.0.4, SVG Export Plug-In . SVG Version: 6.00 Build 0)  -->
<!DOCTYPE svg PUBLIC "-//W3C//DTD SVG 1.1//EN" "http://www.w3.org/Graphics/SVG/1.1/DTD/svg11.dtd">
<svg version="1.1" id="Layer_1" xmlns="http://www.w3.org/2000/svg" xmlns:xlink="http://www.w3.org/1999/xlink" x="0px" y="0px"
	 width="120px" height="120px" viewBox="0 0 120 120" enable-background="new 0 0 120 120" xml:space="preserve">
<path fill="#222222" d="M-140.223,286.959c-0.08,0-0.16-0.021-0.234-0.061c-0.163-0.086-0.266-0.256-0.266-0.439v-1.515
	l-34.603-6.206l-1.546,0.723c-0.067,0.031-0.14,0.048-0.212,0.048c-0.094,0-0.187-0.026-0.269-0.078
	c-0.144-0.093-0.231-0.251-0.231-0.422v-105.69c0-0.275,0.224-0.5,0.5-0.5h0.23c0,0,37.01-3.088,37.052-2.926
	c0.007,0.023,0.05,0.002,0.074,0.007l6.729,1.46l0.352,0.068c0.234,0.047,0.402,0.252,0.402,0.49v109.459
	c0,0.166-0.082,0.32-0.219,0.414l-7.479,5.08C-140.026,286.93-140.124,286.959-140.223,286.959z"/>
<polygon fill="#222222" points="-132.943,171.879 -133.103,171.849 -139.833,170.389 -139.843,170.449 -139.993,170.418 
	-140.223,170.369 -140.223,170.438 -176.853,173.318 -177.083,173.318 -177.083,279.009 -175.393,278.219 -140.223,284.529 
	-140.223,286.459 -132.743,281.379 -132.743,171.918 "/>
<line fill="none" stroke="#000000" stroke-miterlimit="10" x1="74.941" y1="111.572" x2="38.081" y2="104.992"/>
<polyline fill="none" stroke="#000000" stroke-linecap="square" stroke-miterlimit="10" points="74.941,114.645 39.485,108.279 
	38.081,108.941 38.081,20.741 "/>
<path fill="none" stroke="#000000" stroke-miterlimit="10" d="M75.027,19.688l6.892,1.492L75.027,19.688z"/>
<polygon fill="none" stroke="#000000" stroke-miterlimit="10" points="74.941,19.731 74.941,116.312 81.919,111.572 81.919,21.18 
	"/>
<line fill="none" stroke="#000000" stroke-miterlimit="10" x1="45.892" y1="38.667" x2="45.892" y2="52.596"/>
<line fill="none" stroke="#000000" stroke-miterlimit="10" x1="38.081" y1="20.741" x2="74.941" y2="19.688"/>
<line fill="none" stroke="#000000" stroke-miterlimit="10" x1="38.081" y1="54.53" x2="74.941" y2="56.022"/>
<line fill="none" stroke="#000000" stroke-miterlimit="10" x1="38.081" y1="71.201" x2="74.941" y2="73.836"/>
<line fill="none" stroke="#000000" stroke-miterlimit="10" x1="38.081" y1="88.055" x2="74.941" y2="92.354"/>
<line fill="none" stroke="#000000" stroke-miterlimit="10" x1="45.892" y1="52.596" x2="38.081" y2="54.53"/>
<line fill="none" stroke="#000000" stroke-miterlimit="10" x1="45.892" y1="52.596" x2="74.941" y2="53.563"/>
<line fill="none" stroke="#000000" stroke-miterlimit="10" x1="45.892" y1="54.844" x2="45.892" y2="68.922"/>
<line fill="none" stroke="#000000" stroke-miterlimit="10" x1="45.892" y1="68.922" x2="38.081" y2="71.201"/>
<line fill="none" stroke="#000000" stroke-miterlimit="10" x1="45.892" y1="68.922" x2="74.941" y2="70.635"/>
<line fill="none" stroke="#000000" stroke-miterlimit="10" x1="45.892" y1="71.762" x2="45.892" y2="85.113"/>
<line fill="none" stroke="#000000" stroke-miterlimit="10" x1="45.892" y1="85.113" x2="38.081" y2="88.055"/>
<line fill="none" stroke="#000000" stroke-miterlimit="10" x1="45.892" y1="85.113" x2="74.941" y2="88.055"/>
<line fill="none" stroke="#000000" stroke-miterlimit="10" x1="45.892" y1="88.963" x2="45.892" y2="101.043"/>
<line fill="none" stroke="#000000" stroke-miterlimit="10" x1="45.892" y1="101.043" x2="38.081" y2="104.332"/>
<line fill="none" stroke="#000000" stroke-miterlimit="10" x1="45.892" y1="101.043" x2="74.941" y2="104.992"/>
<line fill="none" stroke="#000000" stroke-miterlimit="10" x1="45.892" y1="36.932" x2="45.892" y2="22.715"/>
<line fill="none" stroke="#000000" stroke-miterlimit="10" x1="45.892" y1="22.715" x2="38.081" y2="20.741"/>
<line fill="none" stroke="#000000" stroke-miterlimit="10" x1="45.892" y1="22.715" x2="74.941" y2="22.221"/>
<line fill="none" stroke="#000000" stroke-miterlimit="10" x1="74.941" y1="39.346" x2="38.081" y2="38.485"/>
<line fill="none" stroke="#000000" stroke-miterlimit="10" x1="45.892" y1="36.932" x2="38.081" y2="38.485"/>
<line fill="none" stroke="#000000" stroke-miterlimit="10" x1="45.892" y1="36.932" x2="75.027" y2="37.46"/>
<line fill="none" stroke="#000000" stroke-miterlimit="10" x1="39.485" y1="108.279" x2="39.485" y2="105.258"/>
<path fill="#222222" d="M-61.162,171.463l-0.01,0.08v-0.1l-43.311,1.449h-0.08h-0.24v103.82l1.93-0.91l41.201,7.4v2.2l8.67-5.87
	v-106.34L-61.162,171.463z M-104.302,271.482v-0.38l8.92-3.77l33.71,4.58v7.189L-104.302,271.482z M-95.662,175.643v16.24
	l-8.64,1.71v-20.13L-95.662,175.643z M-61.671,195.143v16.141l-33.49-1.12v-15.79L-61.671,195.143z M-95.362,210.652h0.01
	l33.681,1.131v2.369l-41.121-1.66L-95.362,210.652z M-61.671,214.652v16.58l-33.49-1.97v-15.96L-61.671,214.652z M-95.382,229.743
	l33.71,2v3.229l-41.471-2.95L-95.382,229.743z M-61.671,235.473v16.141l-33.49-3.4v-15.13L-61.671,235.473z M-95.372,248.703
	l33.701,3.41v4.52l-41.831-4.87L-95.372,248.703z M-95.162,253.223l33.49,3.91v14.271l-33.49-4.54V253.223z M-61.671,194.643
	l-40.621-0.939l6.93-1.37l33.69,0.61V194.643z M-61.671,192.443l-33.49-0.61v-16.13l33.49-0.58V192.443z M-104.302,194.163l8.64,0.2
	v15.85l-8.64,2.13V194.163z M-104.302,212.933l8.64,0.351v16.02l-8.64,2.53V212.933z M-104.302,232.442l8.64,0.61v15.22l-8.64,3.261
	V232.442z M-104.302,252.153l8.64,1.01v13.74l-8.64,3.64V252.153z M-61.671,171.963v2.66l-33.721,0.58h-0.02l-7.37-1.87
	L-61.671,171.963z M-104.302,271.982l1.15,0.221v3.18l-1.15,0.53V271.982z M-102.652,275.333v-3.04l40.98,7.31v3.09
	L-102.652,275.333z M-53.501,279.263l-7.67,5.2v-1.42l0.029-0.25l-0.029-0.01v-110.82l7.67,1.641V279.263z"/>
<g id="Layer_2_1_">
	<g>
		<g id="XMLID_1_">
			<polygon fill="#222222" points="-132.743,171.918 -132.743,281.379 -140.223,286.459 -140.223,284.529 -140.203,284.529 
				-139.963,284.578 -139.873,284.088 -140.223,284.029 -140.223,281.459 -140.013,281.498 -139.923,280.998 -140.223,280.949 
				-140.223,274.889 -140.003,274.918 -139.943,274.418 -140.223,274.379 -140.223,262.248 -140.003,262.279 -139.943,261.779 
				-140.223,261.748 -140.223,257.959 -139.993,257.979 -139.943,257.479 -140.223,257.449 -140.223,243.738 -139.993,243.759 
				-139.953,243.269 -140.223,243.248 -140.223,240.549 -139.983,240.559 -139.953,240.059 -140.223,240.039 -140.223,225.938 
				-139.983,225.949 -139.963,225.449 -140.223,225.438 -140.223,223.479 -139.983,223.488 -139.963,222.988 -140.223,222.979 
				-140.223,209.259 -139.973,209.269 -139.963,208.769 -140.223,208.759 -140.223,207.379 -139.893,207.389 -139.883,206.889 
				-140.223,206.879 -140.223,192.148 -139.963,192.148 -139.973,191.648 -140.223,191.648 -140.223,189.629 -139.963,189.619 
				-139.983,189.119 -140.223,189.129 -140.223,173.849 -139.863,173.818 -139.903,173.318 -140.223,173.349 -140.223,170.938 
				-139.953,170.918 -139.993,170.418 -139.843,170.449 -139.943,170.869 -133.243,172.328 -139.723,170.979 -139.723,285.519 
				-133.243,281.119 -133.243,172.328 -133.043,172.369 -132.943,171.879 			"/>
			<polygon fill="#222222" points="-132.943,171.879 -133.043,172.369 -133.243,172.328 -139.943,170.869 -139.843,170.449 
				-133.103,171.849 			"/>
			<polygon fill="#222222" points="-139.833,170.389 -133.103,171.849 -139.843,170.449 			"/>
			<polygon fill="#FFFFFF" points="-133.243,172.328 -133.243,281.119 -139.723,285.519 -139.723,170.979 			"/>
			<polygon fill="#222222" points="-139.903,173.318 -139.863,173.818 -140.223,173.849 -140.223,173.349 			"/>
			<polygon fill="#222222" points="-139.873,284.088 -139.963,284.578 -140.203,284.529 -140.223,284.529 -140.223,284.029 			"/>
			<polygon fill="#222222" points="-139.883,206.889 -139.893,207.389 -140.223,207.379 -140.223,206.879 			"/>
			<polygon fill="#222222" points="-139.923,280.998 -140.013,281.498 -140.223,281.459 -140.223,280.949 			"/>
			<polygon fill="#222222" points="-139.943,257.479 -139.993,257.979 -140.223,257.959 -140.223,257.449 			"/>
			<polygon fill="#222222" points="-139.943,261.779 -140.003,262.279 -140.223,262.248 -140.223,261.748 			"/>
			<polygon fill="#222222" points="-139.943,274.418 -140.003,274.918 -140.223,274.889 -140.223,274.379 			"/>
			<polygon fill="#222222" points="-139.993,170.418 -139.953,170.918 -140.223,170.938 -140.223,170.438 			"/>
			<polygon fill="#222222" points="-139.953,240.059 -139.983,240.559 -140.223,240.549 -140.223,240.039 			"/>
			<polygon fill="#222222" points="-139.953,243.269 -139.993,243.759 -140.223,243.738 -140.223,243.248 			"/>
			<polygon fill="#222222" points="-139.983,189.119 -139.963,189.619 -140.223,189.629 -140.223,189.129 			"/>
			<polygon fill="#222222" points="-139.973,191.648 -139.963,192.148 -140.223,192.148 -140.223,191.648 			"/>
			<polygon fill="#222222" points="-139.963,208.769 -139.973,209.269 -140.223,209.259 -140.223,208.759 			"/>
			<polygon fill="#222222" points="-139.963,222.988 -139.983,223.488 -140.223,223.479 -140.223,222.979 			"/>
			<polygon fill="#222222" points="-139.963,225.449 -139.983,225.949 -140.223,225.938 -140.223,225.438 			"/>
			<polygon fill="#222222" points="-139.993,170.418 -140.223,170.438 -140.223,170.369 			"/>
			<polygon fill="#222222" points="-140.223,284.029 -140.223,284.529 -175.393,278.219 -177.083,279.009 -177.083,173.318 
				-176.853,173.318 -176.833,173.568 -176.913,173.809 -176.583,173.918 -176.583,190.158 -176.843,190.168 -176.833,190.418 
				-176.893,190.658 -176.583,190.738 -176.583,207.858 -176.823,207.908 -176.883,207.918 -176.833,208.188 -176.833,208.408 
				-176.783,208.408 -176.583,208.418 -176.583,223.879 -176.893,223.959 -176.833,224.209 -176.843,224.459 -176.583,224.469 
				-176.583,240.549 -176.903,240.639 -176.833,240.879 -176.853,241.129 -176.583,241.148 -176.583,257.369 -176.923,257.498 
				-176.833,257.729 -176.863,257.979 -176.583,258.009 -176.583,273.629 -176.933,273.779 -176.733,274.238 -176.583,274.179 
				-176.583,274.459 -176.783,274.418 -176.873,274.918 -176.583,274.969 -176.583,278.229 -175.673,277.799 -175.673,277.959 
				-175.173,277.959 -175.173,277.748 			"/>
			<polygon fill="#FFFFFF" points="-140.223,281.459 -140.223,284.029 -175.173,277.748 -175.173,275.219 			"/>
			<polygon fill="#222222" points="-140.223,280.949 -140.223,281.459 -175.173,275.219 -175.173,274.929 -175.673,274.929 
				-175.673,275.129 -176.583,274.969 -176.583,274.459 			"/>
			<polygon fill="#FFFFFF" points="-140.223,274.889 -140.223,280.949 -176.583,274.459 -176.583,274.179 -168.993,270.979 			"/>
			<polygon fill="#222222" points="-140.223,274.379 -140.223,274.889 -168.993,270.979 -168.923,270.949 -169.023,270.729 
				-169.023,270.719 -169.013,270.719 -168.773,270.719 -168.773,270.498 			"/>
			<polygon fill="#FFFFFF" points="-140.223,262.248 -140.223,274.379 -168.773,270.498 -168.773,258.918 			"/>
			<polygon fill="#222222" points="-140.223,261.748 -140.223,262.248 -168.773,258.918 -168.773,258.639 -169.273,258.639 
				-169.273,258.869 -176.583,258.009 -176.583,257.908 -175.763,257.599 			"/>
			<polygon fill="#FFFFFF" points="-140.223,257.959 -140.223,261.748 -175.763,257.599 -168.973,255.049 			"/>
			<polygon fill="#222222" points="-140.223,257.449 -140.223,257.959 -168.973,255.049 -168.933,255.029 -169.023,254.799 
				-169.023,254.789 -169.013,254.789 -168.773,254.789 -168.773,254.559 			"/>
			<polygon fill="#FFFFFF" points="-140.223,243.738 -140.223,257.449 -168.773,254.559 -168.773,241.709 			"/>
			<polygon fill="#222222" points="-140.223,243.248 -140.223,243.738 -168.773,241.709 -168.773,241.438 -169.273,241.438 
				-169.273,241.668 -176.583,241.148 -176.583,241.068 -175.423,240.729 			"/>
			<polygon fill="#FFFFFF" points="-140.223,240.549 -140.223,243.248 -175.423,240.729 -168.993,238.849 			"/>
			<polygon fill="#222222" points="-140.223,240.039 -140.223,240.549 -168.993,238.849 -168.953,238.838 -169.023,238.608 
				-169.023,238.599 -169.013,238.599 -168.773,238.599 -168.773,238.358 			"/>
			<polygon fill="#FFFFFF" points="-140.223,225.938 -140.223,240.039 -168.773,238.358 -168.773,224.789 			"/>
			<polygon fill="#222222" points="-140.223,225.438 -140.223,225.938 -168.773,224.789 -168.773,224.519 -169.273,224.519 
				-169.273,224.769 -176.583,224.469 -176.583,224.398 -175.073,224.029 			"/>
			<polygon fill="#FFFFFF" points="-140.223,223.479 -140.223,225.438 -175.073,224.029 -168.973,222.519 -168.963,222.519 			"/>
			<polygon fill="#222222" points="-140.223,222.979 -140.223,223.479 -168.963,222.519 -169.023,222.269 -168.773,222.269 
				-168.773,222.029 			"/>
			<polygon fill="#FFFFFF" points="-140.223,209.259 -140.223,222.979 -168.773,222.029 -168.773,208.599 			"/>
			<polygon fill="#222222" points="-140.223,208.759 -140.223,209.259 -168.773,208.599 -168.773,208.349 -169.273,208.349 
				-169.273,208.588 -176.583,208.418 -176.583,208.369 -174.533,207.959 			"/>
			<polygon fill="#FFFFFF" points="-140.223,207.379 -140.223,208.759 -174.533,207.959 -168.973,206.858 			"/>
			<polygon fill="#222222" points="-140.223,206.879 -140.223,207.379 -168.973,206.858 -169.023,206.639 -169.023,206.608 
				-169.013,206.608 -168.773,206.608 -168.773,206.358 			"/>
			<polygon fill="#FFFFFF" points="-140.223,192.148 -140.223,206.879 -168.773,206.358 -168.773,192.639 			"/>
			<polygon fill="#222222" points="-140.223,191.648 -140.223,192.148 -168.773,192.639 -168.773,192.389 -169.013,192.389 
				-169.023,192.389 -169.023,192.379 -168.963,192.148 -169.003,192.139 			"/>
			<polygon fill="#FFFFFF" points="-140.223,189.629 -140.223,191.648 -169.003,192.139 -169.023,192.139 -175.033,190.619 			"/>
			<polygon fill="#222222" points="-140.223,189.129 -140.223,189.629 -175.033,190.619 -176.583,190.229 -176.583,190.158 
				-169.273,189.949 -169.273,190.199 -168.773,190.199 -168.773,189.938 			"/>
			<polygon fill="#FFFFFF" points="-140.223,173.849 -140.223,189.129 -168.773,189.938 -168.773,176.338 			"/>
			<polygon fill="#222222" points="-140.223,173.349 -140.223,173.849 -168.773,176.338 -168.773,176.108 -169.023,176.108 
				-168.943,175.879 -169.013,175.858 			"/>
			<polygon fill="#FFFFFF" points="-140.223,170.938 -140.223,173.349 -169.013,175.858 -175.553,173.719 			"/>
			<polygon fill="#222222" points="-140.223,170.438 -140.223,170.938 -175.553,173.719 -176.583,173.389 -176.583,173.318 
				-176.853,173.318 			"/>
			<polygon fill="#222222" points="-168.773,270.498 -168.773,270.719 -169.013,270.719 -168.983,270.469 			"/>
			<polygon fill="#222222" points="-168.773,258.918 -168.773,270.498 -168.983,270.469 -169.013,270.719 -169.023,270.719 
				-169.123,270.488 -169.273,270.549 -169.273,258.869 			"/>
			<polygon fill="#222222" points="-168.773,258.639 -168.773,258.918 -169.273,258.869 -169.273,258.639 			"/>
			<polygon fill="#222222" points="-168.773,254.559 -168.773,254.789 -169.013,254.789 -168.993,254.539 			"/>
			<polygon fill="#222222" points="-168.773,241.709 -168.773,254.559 -168.993,254.539 -169.013,254.789 -169.023,254.789 
				-169.113,254.559 -169.273,254.619 -169.273,241.668 			"/>
			<polygon fill="#222222" points="-168.773,241.438 -168.773,241.709 -169.273,241.668 -169.273,241.438 			"/>
			<polygon fill="#222222" points="-168.773,238.358 -168.773,238.599 -169.013,238.599 -169.003,238.349 			"/>
			<polygon fill="#222222" points="-168.773,224.789 -168.773,238.358 -169.003,238.349 -169.013,238.599 -169.023,238.599 
				-169.093,238.358 -169.273,238.408 -169.273,224.769 			"/>
			<polygon fill="#222222" points="-168.773,224.519 -168.773,224.789 -169.273,224.769 -169.273,224.519 			"/>
			<polygon fill="#222222" points="-168.773,222.029 -168.773,222.269 -169.023,222.269 -169.013,222.019 			"/>
			<polygon fill="#222222" points="-168.773,208.599 -168.773,222.029 -169.013,222.019 -169.023,222.269 -169.083,222.029 
				-169.273,222.078 -169.273,208.588 			"/>
			<polygon fill="#222222" points="-168.773,208.349 -168.773,208.599 -169.273,208.588 -169.273,208.349 			"/>
			<rect x="-169.013" y="206.358" fill="#222222" width="0.24" height="0.25"/>
			<polygon fill="#222222" points="-168.773,192.639 -168.773,206.358 -169.013,206.358 -169.013,206.608 -169.023,206.608 
				-169.073,206.369 -169.273,206.408 -169.273,192.588 -169.083,192.639 -169.023,192.389 -169.013,192.389 -169.013,192.639 			
				"/>
			<rect x="-169.013" y="192.389" fill="#222222" width="0.24" height="0.25"/>
			<polygon fill="#222222" points="-168.773,189.938 -168.773,190.199 -169.273,190.199 -169.273,189.949 			"/>
			<polygon fill="#222222" points="-168.773,176.338 -168.773,189.938 -169.273,189.949 -169.273,176.289 -169.103,176.349 
				-169.023,176.108 -169.003,176.358 			"/>
			<polygon fill="#222222" points="-168.773,176.108 -168.773,176.338 -169.003,176.358 -169.023,176.108 			"/>
			<polygon fill="#222222" points="-169.023,270.729 -168.923,270.949 -168.993,270.979 -169.053,270.969 			"/>
			<polygon fill="#222222" points="-169.023,254.799 -168.933,255.029 -168.973,255.049 -169.043,255.039 			"/>
			<polygon fill="#222222" points="-168.943,175.879 -169.023,176.108 -169.043,175.858 -169.013,175.858 			"/>
			<polygon fill="#222222" points="-169.023,238.608 -168.953,238.838 -168.993,238.849 -169.033,238.849 			"/>
			<polygon fill="#222222" points="-168.963,192.148 -169.023,192.379 -169.023,192.139 -169.003,192.139 			"/>
			<polygon fill="#222222" points="-169.023,222.269 -168.963,222.519 -168.973,222.519 -169.033,222.519 			"/>
			<polygon fill="#222222" points="-169.023,206.639 -168.973,206.858 -169.023,206.858 			"/>
			<polygon fill="#222222" points="-168.973,206.858 -174.533,207.959 -176.583,207.918 -176.583,207.858 -169.273,206.408 
				-169.273,206.608 -169.023,206.608 -169.023,206.639 -169.023,206.858 			"/>
			<polygon fill="#222222" points="-168.973,222.519 -175.073,224.029 -176.583,223.969 -176.583,223.879 -169.273,222.078 
				-169.273,222.269 -169.023,222.269 -169.033,222.519 			"/>
			<polygon fill="#222222" points="-168.973,255.049 -175.763,257.599 -176.583,257.509 -176.583,257.369 -169.273,254.619 
				-169.273,254.789 -169.023,254.789 -169.023,254.799 -169.043,255.039 			"/>
			<polygon fill="#222222" points="-168.993,238.849 -175.423,240.729 -176.583,240.648 -176.583,240.549 -169.273,238.408 
				-169.273,238.599 -169.023,238.599 -169.023,238.608 -169.033,238.849 			"/>
			<polygon fill="#222222" points="-168.993,270.979 -176.583,274.179 -176.583,273.629 -169.273,270.549 -169.273,270.719 
				-169.023,270.719 -169.023,270.729 -169.053,270.969 			"/>
			<polygon fill="#222222" points="-169.013,175.858 -169.043,175.858 -169.023,176.108 -169.273,176.108 -169.273,176.289 
				-176.583,173.918 -176.583,173.799 -175.553,173.719 			"/>
			<polygon fill="#222222" points="-175.033,190.619 -169.023,192.139 -169.023,192.379 -169.023,192.389 -169.273,192.389 
				-169.273,192.588 -176.583,190.738 -176.583,190.658 			"/>
			<polygon fill="#222222" points="-169.023,192.389 -169.083,192.639 -169.273,192.588 -169.273,192.389 			"/>
			<polygon fill="#222222" points="-169.023,176.108 -169.103,176.349 -169.273,176.289 -169.273,176.108 			"/>
			<polygon fill="#222222" points="-169.093,238.358 -169.023,238.599 -169.273,238.599 -169.273,238.408 			"/>
			<polygon fill="#222222" points="-169.123,270.488 -169.023,270.719 -169.273,270.719 -169.273,270.549 			"/>
			<polygon fill="#222222" points="-169.073,206.369 -169.023,206.608 -169.273,206.608 -169.273,206.408 			"/>
			<polygon fill="#222222" points="-169.083,222.029 -169.023,222.269 -169.273,222.269 -169.273,222.078 			"/>
			<polygon fill="#222222" points="-169.113,254.559 -169.023,254.789 -169.273,254.789 -169.273,254.619 			"/>
			<polygon fill="#FFFFFF" points="-169.273,258.869 -169.273,270.549 -176.583,273.629 -176.583,258.009 			"/>
			<polygon fill="#FFFFFF" points="-169.273,241.668 -169.273,254.619 -176.583,257.369 -176.583,241.148 			"/>
			<polygon fill="#FFFFFF" points="-169.273,224.769 -169.273,238.408 -176.583,240.549 -176.583,224.469 			"/>
			<polygon fill="#FFFFFF" points="-169.273,208.588 -169.273,222.078 -176.583,223.879 -176.583,208.418 			"/>
			<polygon fill="#FFFFFF" points="-169.273,192.588 -169.273,206.408 -176.583,207.858 -176.583,190.738 			"/>
			<polygon fill="#FFFFFF" points="-169.273,176.289 -169.273,189.949 -176.583,190.158 -176.583,173.918 			"/>
			<polygon fill="#222222" points="-174.533,207.959 -176.583,208.369 -176.583,207.918 			"/>
			<polygon fill="#222222" points="-175.033,190.619 -176.583,190.658 -176.583,190.229 			"/>
			<polygon fill="#222222" points="-175.073,224.029 -176.583,224.398 -176.583,223.969 			"/>
			<polygon fill="#222222" points="-175.173,277.748 -175.173,277.959 -175.673,277.959 -175.673,277.799 -175.463,277.699 
				-175.383,277.709 			"/>
			<polygon fill="#222222" points="-175.173,275.219 -175.173,277.748 -175.383,277.709 -175.463,277.699 -175.673,277.799 
				-175.673,275.129 			"/>
			<polygon fill="#222222" points="-175.173,274.929 -175.173,275.219 -175.673,275.129 -175.673,274.929 			"/>
			<polygon fill="#222222" points="-175.423,240.729 -176.583,241.068 -176.583,240.648 			"/>
			<polygon fill="#222222" points="-175.553,173.719 -176.583,173.799 -176.583,173.389 			"/>
			<polygon fill="#FFFFFF" points="-175.673,275.129 -175.673,277.799 -176.583,278.229 -176.583,274.969 			"/>
			<polygon fill="#222222" points="-175.763,257.599 -176.583,257.908 -176.583,257.509 			"/>
			<polygon fill="#222222" points="-176.583,274.459 -176.583,274.969 -176.873,274.918 -176.783,274.418 			"/>
			<polygon fill="#222222" points="-176.583,273.629 -176.583,274.179 -176.733,274.238 -176.933,273.779 			"/>
			<polygon fill="#222222" points="-176.583,257.908 -176.583,258.009 -176.863,257.979 -176.833,257.729 -176.743,257.969 			"/>
			<polygon fill="#222222" points="-176.583,257.509 -176.583,257.908 -176.743,257.969 -176.833,257.729 -176.803,257.479 			"/>
			<polygon fill="#222222" points="-176.583,257.369 -176.583,257.509 -176.803,257.479 -176.833,257.729 -176.923,257.498 			"/>
			<polygon fill="#222222" points="-176.583,241.068 -176.583,241.148 -176.853,241.129 -176.833,240.879 -176.763,241.119 			"/>
			<polygon fill="#222222" points="-176.583,240.648 -176.583,241.068 -176.763,241.119 -176.833,240.879 -176.813,240.629 			"/>
			<polygon fill="#222222" points="-176.583,240.549 -176.583,240.648 -176.813,240.629 -176.833,240.879 -176.903,240.639 			"/>
			<polygon fill="#222222" points="-176.583,224.398 -176.583,224.469 -176.843,224.459 -176.833,224.209 -176.773,224.449 			"/>
			<polygon fill="#222222" points="-176.583,223.969 -176.583,224.398 -176.773,224.449 -176.833,224.209 -176.823,223.959 			"/>
			<polygon fill="#222222" points="-176.583,223.879 -176.583,223.969 -176.823,223.959 -176.833,224.209 -176.893,223.959 			"/>
			<polygon fill="#222222" points="-176.583,208.369 -176.583,208.418 -176.783,208.408 			"/>
			<polygon fill="#222222" points="-176.583,207.918 -176.583,208.369 -176.783,208.408 -176.833,208.188 -176.823,207.908 			"/>
			<polygon fill="#222222" points="-176.583,207.858 -176.583,207.918 -176.823,207.908 			"/>
			<polygon fill="#222222" points="-176.583,190.658 -176.583,190.738 -176.893,190.658 -176.833,190.418 -176.823,190.668 			"/>
			<polygon fill="#222222" points="-176.583,190.229 -176.583,190.658 -176.823,190.668 -176.833,190.418 -176.773,190.179 			"/>
			<polygon fill="#222222" points="-176.583,190.158 -176.583,190.229 -176.773,190.179 -176.833,190.418 -176.843,190.168 			"/>
			<polygon fill="#222222" points="-176.583,173.799 -176.583,173.918 -176.913,173.809 -176.833,173.568 -176.813,173.818 			"/>
			<polygon fill="#222222" points="-176.583,173.389 -176.583,173.799 -176.813,173.818 -176.833,173.568 -176.753,173.328 			"/>
			<polygon fill="#222222" points="-176.583,173.318 -176.583,173.389 -176.753,173.328 -176.833,173.568 -176.853,173.318 			"/>
			<polygon fill="#222222" points="-176.833,208.188 -176.783,208.408 -176.833,208.408 			"/>
			<polygon fill="#222222" points="-176.823,207.908 -176.833,208.188 -176.883,207.918 			"/>
		</g>
	</g>
</g>
</svg>
