<?xml version="1.0" encoding="utf-8"?>
<!-- Generator: Adobe Illustrator 16.0.4, SVG Export Plug-In . SVG Version: 6.00 Build 0)  -->
<!DOCTYPE svg PUBLIC "-//W3C//DTD SVG 1.1//EN" "http://www.w3.org/Graphics/SVG/1.1/DTD/svg11.dtd">
<svg version="1.1" id="Layer_1" xmlns="http://www.w3.org/2000/svg" xmlns:xlink="http://www.w3.org/1999/xlink" x="0px" y="0px"
	 width="120px" height="120px" viewBox="0 0 120 120" enable-background="new 0 0 120 120" xml:space="preserve">
<g id="Layer_2">
	<line fill="none" stroke="#000000" stroke-miterlimit="10" x1="26.482" y1="62.534" x2="26.482" y2="102.377"/>
	<line fill="none" stroke="#000000" stroke-miterlimit="10" x1="22.719" y1="62.188" x2="69.234" y2="66.464"/>
	<line fill="none" stroke="#000000" stroke-miterlimit="10" x1="69.234" y1="60.308" x2="69.234" y2="110.243"/>
	<line fill="none" stroke="#000000" stroke-miterlimit="10" x1="97.281" y1="60.308" x2="69.234" y2="66.464"/>
	<line fill="none" stroke="#000000" stroke-miterlimit="10" x1="94.818" y1="60.849" x2="94.818" y2="98.215"/>
	<polyline fill="none" stroke="#000000" stroke-linecap="square" stroke-miterlimit="10" points="90.76,62.188 90.76,97.588 
		94.818,98.215 97.281,97.588 97.281,55.007 	"/>
	<polyline fill="none" stroke="#000000" stroke-miterlimit="10" points="64.439,66.022 64.439,109.901 69.234,110.243 
		72.152,108.702 72.152,65.823 	"/>
	<polygon fill="none" stroke="#000000" stroke-miterlimit="7" points="97.281,55.007 69.234,60.308 22.719,56.716 54.871,51.757 	
		"/>
	<line fill="none" stroke="#000000" stroke-miterlimit="10" x1="55.544" y1="65.206" x2="55.544" y2="92.173"/>
	<polyline fill="none" stroke="#000000" stroke-miterlimit="10" points="51.967,64.877 51.967,91.603 55.544,92.173 57.78,91.603 
		57.78,65.411 	"/>
	<polyline fill="none" stroke="#000000" stroke-linecap="square" stroke-miterlimit="10" points="22.719,56.716 22.719,101.862 
		26.482,102.377 29.903,100.666 29.903,63.172 	"/>
</g>
</svg>
