<?xml version="1.0" encoding="utf-8"?>
<!-- Generator: Adobe Illustrator 16.0.4, SVG Export Plug-In . SVG Version: 6.00 Build 0)  -->
<!DOCTYPE svg PUBLIC "-//W3C//DTD SVG 1.1//EN" "http://www.w3.org/Graphics/SVG/1.1/DTD/svg11.dtd">
<svg version="1.1" id="Layer_1" xmlns="http://www.w3.org/2000/svg" xmlns:xlink="http://www.w3.org/1999/xlink" x="0px" y="0px"
	 width="120px" height="120px" viewBox="0 0 120 120" enable-background="new 0 0 120 120" xml:space="preserve">
<g id="Layer_2">
	<line fill="none" stroke="#000000" stroke-miterlimit="10" x1="10.527" y1="49.987" x2="90.863" y2="56.114"/>
	<line fill="none" stroke="#000000" stroke-miterlimit="10" x1="90.863" y1="58.836" x2="10.527" y2="53.051"/>
	<line fill="none" stroke="#000000" stroke-miterlimit="10" x1="90.863" y1="56.114" x2="90.863" y2="115.004"/>
	<line fill="none" stroke="#000000" stroke-miterlimit="10" x1="90.863" y1="56.114" x2="109.473" y2="49.987"/>
	<line fill="none" stroke="#000000" stroke-miterlimit="10" x1="90.863" y1="58.836" x2="109.473" y2="52.625"/>
	<line fill="none" stroke="#000000" stroke-miterlimit="10" x1="35.491" y1="89.299" x2="88.366" y2="95.488"/>
	<line fill="none" stroke="#000000" stroke-miterlimit="10" x1="12.57" y1="104.225" x2="12.57" y2="53.198"/>
	<polyline fill="none" stroke="#000000" stroke-miterlimit="10" points="88.366,58.658 88.366,114.891 90.863,115.004 
		109.473,104.225 109.473,49.987 35.491,44.995 10.527,49.987 10.527,104.225 12.57,104.434 35.491,94.693 35.491,60.347 	"/>
	<polyline fill="none" stroke="#000000" stroke-miterlimit="10" points="30.724,54.506 30.724,59.972 88.366,64.51 	"/>
</g>
</svg>
