<?xml version="1.0" encoding="utf-8"?>
<!-- Generator: Adobe Illustrator 16.0.4, SVG Export Plug-In . SVG Version: 6.00 Build 0)  -->
<!DOCTYPE svg PUBLIC "-//W3C//DTD SVG 1.1//EN" "http://www.w3.org/Graphics/SVG/1.1/DTD/svg11.dtd">
<svg version="1.1" id="Layer_1" xmlns="http://www.w3.org/2000/svg" xmlns:xlink="http://www.w3.org/1999/xlink" x="0px" y="0px"
	 width="120px" height="120px" viewBox="0 0 120 120" enable-background="new 0 0 120 120" xml:space="preserve">
<g id="Layer_2">
	<line fill="none" stroke="#000000" stroke-miterlimit="10" x1="107.779" y1="74.42" x2="107.779" y2="108.729"/>
	
		<line fill="none" stroke="#000000" stroke-linecap="round" stroke-miterlimit="10" x1="9.674" y1="73.418" x2="9.674" y2="93.621"/>
	
		<line fill="none" stroke="#000000" stroke-linecap="round" stroke-miterlimit="10" x1="95.947" y1="74.42" x2="95.947" y2="97.898"/>
	<line fill="none" stroke="#000000" stroke-miterlimit="10" x1="26.419" y1="82.52" x2="95.947" y2="85.521"/>
	<line fill="none" stroke="#000000" stroke-miterlimit="10" x1="105.959" y1="68.582" x2="97.859" y2="70.188"/>
	<path fill="none" stroke="#000000" stroke-miterlimit="10" d="M119.062,70.506v30.033l-11.283,8.188L2.757,102.539
		c-1.006,0-1.82-1.547-1.82-3.457V73.418"/>
	<path fill="none" stroke="#000000" stroke-miterlimit="10" d="M14.111,83.135c-3.345,0-4.437,1.979-4.437,5.049"/>
	<line fill="none" stroke="#000000" stroke-miterlimit="10" x1="26.419" y1="82.52" x2="14.111" y2="83.135"/>
	<path fill="none" stroke="#000000" stroke-miterlimit="10" d="M0.938,73.418c0-2.414,1.536-3.969,3.822-4.369l19.111-1.637
		l92.597,1.318"/>
	<path fill="none" stroke="#000000" stroke-miterlimit="10" d="M30.174,68.23l-17.019,2.141c-2.048,0.455-3.481,1.361-3.481,3.049"
		/>
	<path fill="none" stroke="#000000" stroke-miterlimit="10" d="M95.947,74.42c0-2.34,0-3.688,1.912-4.232"/>
	<path fill="none" stroke="#000000" stroke-miterlimit="10" d="M119.062,70.506c0-0.654-0.43-1.775-2.594-1.775l-8.055,2.322
		c-0.637,1-0.637,2.047-0.637,3.367"/>
	<path fill="none" stroke="#000000" stroke-miterlimit="10" d="M33.052,67.543c-2.136,0-3.407,0.852-4.036,1.701l-2.597,13.273"/>
	<path fill="none" stroke="#000000" stroke-miterlimit="10" d="M7.088,102.795v5.318c0,0,1.244,0.295,2.861,0v-5.15"/>
	<path fill="none" stroke="#000000" stroke-miterlimit="10" d="M101.277,108.346v6.111c0,0,1.242,0.297,2.859,0v-5.943"/>
	<path fill="none" stroke="#000000" stroke-miterlimit="10" d="M110.936,106.438v1.791c0,0,1.244,0.295,2.861,0v-3.867"/>
</g>
<line fill="none" stroke="#000000" stroke-linecap="square" stroke-miterlimit="10" x1="95.947" y1="97.898" x2="9.674" y2="93.621"/>
</svg>
