<?xml version="1.0" encoding="utf-8"?>
<!-- Generator: Adobe Illustrator 15.1.0, SVG Export Plug-In . SVG Version: 6.00 Build 0)  -->
<!DOCTYPE svg PUBLIC "-//W3C//DTD SVG 1.1//EN" "http://www.w3.org/Graphics/SVG/1.1/DTD/svg11.dtd">
<svg version="1.1" id="Layer_1" xmlns="http://www.w3.org/2000/svg" xmlns:xlink="http://www.w3.org/1999/xlink" x="0px" y="0px"
	 width="500px" height="500px" viewBox="0 0 500 500" enable-background="new 0 0 500 500" xml:space="preserve">
<g id="Layer_2">
	<path fill="none" stroke="#000000" stroke-width="3" stroke-linecap="round" stroke-miterlimit="10" d="M141.005,230.977"/>
	<path fill="none" stroke="#000000" stroke-width="3" stroke-linecap="round" stroke-miterlimit="10" d="M225.421,202.617"/>
	<rect x="158.919" y="290.5" width="3" height="18.2"/>
	<rect x="196.603" y="253.039" transform="matrix(-0.0286 -0.9996 0.9996 -0.0286 -76.4582 486.4025)" width="3" height="54.624"/>
	<path d="M141.005,232.477c-0.309,0-0.619-0.094-0.888-0.291c-0.667-0.49-0.812-1.429-0.321-2.097
		c4.338-5.913,64.008-26.594,91.736-28.967c0.833-0.064,1.553,0.542,1.623,1.367c0.07,0.826-0.542,1.552-1.367,1.623
		c-29.664,2.538-86.445,23.49-89.574,27.753C141.921,232.265,141.466,232.477,141.005,232.477z"/>
	<path d="M161.919,290.5h-3c0-5.988,5.338-10.859,11.9-10.859v3C165.912,282.641,161.919,286.166,161.919,290.5z"/>
	<path d="M165.62,315.92c-3.694,0-6.7-3.238-6.7-7.22h3c0,2.327,1.66,4.22,3.7,4.22V315.92z"/>
	<path d="M351,205.976c-23.073-14.175-70.875-14.942-118.946-1.911l-0.784-2.896c49.584-13.441,97.197-12.557,121.301,2.25
		L351,205.976z"/>
	<path d="M365.04,227.884l-2.938-0.612c1.629-7.814,1.872-12.312-11.171-21.341l1.707-2.467
		C366.896,213.333,366.835,219.273,365.04,227.884z"/>
	<path d="M299.351,375.549l-0.169-0.01L149.407,358.56c-4.005-0.07-7.128-4.814-7.128-10.858l-2.077-53.965l-6.069-51.078
		c0-3.708,0-12.394,9.399-13.96c3.498-0.597,6.233-0.13,8.354,1.428c2.777,2.041,4.475,5.958,5.338,12.331l5.261,44.787l-2.979,0.35
		l-5.256-44.76c-0.744-5.485-2.061-8.763-4.14-10.29c-1.452-1.065-3.384-1.348-6.08-0.887c-5.718,0.953-6.888,4.881-6.899,10.914
		l6.066,50.992l2.08,54.082c0.001,4.689,2.225,7.919,4.221,7.919l0.17,0.01l149.763,16.978c1.685-0.016,1.972-0.515,1.972-1.967h3
		C304.403,373.831,302.656,375.549,299.351,375.549z"/>
	<path d="M304.403,370.607l-3-0.052l1.05-62.024l6.24-55.122c0.336-2.529,1.35-10.137-1.902-13.852
		c-1.35-1.541-3.302-2.291-5.968-2.291c-5.982,0-10.851,5.101-10.851,11.371l-0.016,0.211l-6.102,42.843l-1.817,28.802
		c0.003,2.934-3.625,5.306-8.257,5.306l-0.137-0.006l-108.163-9.881l0.271-2.988l108.093,9.875c3.173-0.02,5.192-1.429,5.192-2.399
		l1.836-29.072l6.096-42.799c0.057-7.874,6.248-14.262,13.851-14.262c3.532,0,6.299,1.115,8.225,3.314
		c3.72,4.247,3.277,11.276,2.623,16.195l-6.229,55.021L304.403,370.607z"/>
	<path d="M301.762,375.146l-1.103-2.791l42.521-16.795h0.284c0.452,0,1.815-2.05,1.815-5.779l1.377-46.999l6.606-49.548l0.048-0.139
		l8.84-26l2.84,0.966l-8.792,25.862l-6.558,49.179l-1.362,46.725c0.001,4.843-1.866,8.438-4.484,8.719L301.762,375.146z"/>
	<path d="M290.728,242.724c-0.313,0-0.629-0.097-0.898-0.299c-0.663-0.497-0.798-1.437-0.301-2.1
		c7.288-9.731,26.655-19.408,44.093-22.03c0.813-0.124,1.582,0.44,1.706,1.26c0.123,0.819-0.44,1.583-1.261,1.707
		c-16.475,2.478-35.378,11.836-42.138,20.862C291.635,242.516,291.184,242.724,290.728,242.724z"/>
	<path d="M238.113,280.482c-0.829,0-1.5-0.67-1.5-1.5c0-17.892-2.268-51.029-4.588-60.404c-0.199-0.804,0.292-1.618,1.096-1.816
		c0.809-0.198,1.618,0.292,1.816,1.096c2.408,9.734,4.676,42.688,4.676,61.126C239.613,279.813,238.942,280.482,238.113,280.482z"/>
	<path d="M283.846,282.641c-0.052,0-0.102-0.002-0.152-0.008c-18.113-1.82-47.432-2.9-58.085-1.564
		c-0.823,0.102-1.572-0.479-1.675-1.303c-0.104-0.822,0.479-1.572,1.302-1.675c10.842-1.358,40.489-0.278,58.759,1.556
		c0.824,0.084,1.425,0.818,1.342,1.644C285.259,282.063,284.606,282.641,283.846,282.641z"/>
	<path d="M245.726,375.251h-1.324c-3.684,0-5.365,0-7.076-1.056l-0.544-0.335l-1.418-6.583c-0.174-0.811,0.341-1.607,1.149-1.782
		c0.813-0.17,1.608,0.341,1.783,1.151l1.131,5.255c0.733,0.272,1.727,0.334,3.649,0.347l0.566-4.53
		c0.102-0.821,0.848-1.408,1.674-1.303c0.822,0.103,1.405,0.852,1.302,1.674L245.726,375.251z"/>
	<path d="M296.28,409.84c-2.382,0-4.17-0.625-4.282-0.665l-0.902-0.322l-3.206-35.8c-0.074-0.825,0.535-1.554,1.359-1.628
		c0.83-0.073,1.555,0.535,1.628,1.36l3.026,33.8c0.999,0.211,2.711,0.435,4.489,0.024l3.434-33.843
		c0.084-0.823,0.816-1.429,1.645-1.341c0.823,0.083,1.425,0.819,1.341,1.645l-3.631,35.786l-0.893,0.317
		C298.894,409.674,297.508,409.84,296.28,409.84z"/>
	<path d="M327.137,384.726c-2.279,0-3.789-0.463-3.883-0.491l-1.013-0.317l-0.663-18.749c-0.028-0.827,0.618-1.521,1.446-1.552
		c0.823-0.042,1.521,0.618,1.552,1.446l0.585,16.518c0.917,0.139,2.396,0.251,4.154-0.025l1.58-20.234
		c0.063-0.826,0.777-1.451,1.612-1.378c0.824,0.063,1.441,0.786,1.378,1.611l-1.753,22.455l-1.063,0.254
		C329.621,384.608,328.282,384.726,327.137,384.726z"/>
	<path d="M160.013,391.669c-2,0-3.504-0.367-3.598-0.391l-1-0.25l-4.068-33.406l2.979-0.363l3.809,31.283
		c0.845,0.111,2.129,0.208,3.486,0.023l2.506-29.804l2.988,0.252l-2.689,32.004l-1.041,0.261
		C162.212,391.571,161.046,391.669,160.013,391.669z"/>
</g>
</svg>
