<?xml version="1.0" encoding="utf-8"?>
<!-- Generator: Adobe Illustrator 15.1.0, SVG Export Plug-In . SVG Version: 6.00 Build 0)  -->
<!DOCTYPE svg PUBLIC "-//W3C//DTD SVG 1.1//EN" "http://www.w3.org/Graphics/SVG/1.1/DTD/svg11.dtd">
<svg version="1.1" id="Layer_1" xmlns="http://www.w3.org/2000/svg" xmlns:xlink="http://www.w3.org/1999/xlink" x="0px" y="0px"
	 width="500px" height="500px" viewBox="150 50 500 500" enable-background="new 150 50 500 500" xml:space="preserve">
<g id="Layer_2">
	<rect x="575.834" y="238.333" width="3" height="125.667"/>
	<path d="M218,310.167c-0.829,0-1.5-0.672-1.5-1.5v-74c0-0.829,0.671-1.5,1.5-1.5s1.5,0.671,1.5,1.5v74
		C219.5,309.495,218.829,310.167,218,310.167z"/>
	<path d="M534,325.834c-0.828,0-1.5-0.672-1.5-1.5v-86.001c0-0.829,0.672-1.5,1.5-1.5s1.5,0.671,1.5,1.5v86.001
		C535.5,325.162,534.828,325.834,534,325.834z"/>
	<rect x="279.214" y="272" transform="matrix(0.9991 0.0432 -0.0432 0.9991 12.1813 -17.2943)" width="254.905" height="3"/>
	<rect x="554.334" y="204.77" transform="matrix(0.1947 0.9809 -0.9809 0.1947 663.3111 -368.1147)" width="3" height="30.244"/>
	<path d="M577.781,365.529l-0.535-0.032L192.579,342.83c0,0-0.002,0-0.002,0c-4.49,0.001-8.076-6.221-8.076-14.163v-94h3v94
		c0,6.58,2.723,11.166,5.167,11.166l384.22,22.638l40.28-29.235V224h3v110.765L577.781,365.529z"/>
	<path d="M219.5,288.75h-3c0-13.458,5.806-20,17.75-20v3C224.049,271.75,219.5,276.993,219.5,288.75z"/>
	<rect x="255.292" y="246.555" transform="matrix(0.0498 0.9988 -0.9988 0.0498 512.7922 -0.7523)" width="3" height="45.139"/>
	<path d="M187.5,234.667h-3c0-9.282,5.698-15.816,15.243-17.478l0.129-0.017l70.074-6.006l0.075,0.001L609.188,216l-0.043,3
		l-339.092-4.832l-69.859,5.988C192.244,221.564,187.5,226.984,187.5,234.667z"/>
	<path d="M219.5,234.667h-3c0-6.328,4.685-10.578,13.924-12.631l0.139-0.024l62.337-7.833l0.374,2.977l-62.267,7.824
		C223.265,226.714,219.5,229.883,219.5,234.667z"/>
	<path d="M535.5,238.333h-3c0-8.494,0-14.631,8.088-16.942l0.824,2.885C535.786,225.883,535.5,229.143,535.5,238.333z"/>
	<path d="M578.834,238.333h-3c0-4.884,0-9.103,2.567-13.138l0.305-0.479L608.955,216h0.212c10.47,0,11,6.664,11,8h-3
		c0-1.162-0.566-4.928-7.792-4.999l-28.729,8.278C578.834,230.437,578.834,233.784,578.834,238.333z"/>
	<path d="M280.805,268.288l-2.944-0.576l9.579-48.957l0.201-0.272c1.887-2.554,6.474-6.837,15.987-6.837v3
		c-7.866,0-11.708,3.244-13.376,5.36L280.805,268.288z"/>
	<path d="M213.65,363.732c-3.213,0-5.337-0.492-5.469-0.523l-1.153-0.273v-20.668h3v18.221c1.465,0.202,4.199,0.429,7.479-0.018
		v-17.586h3v20.116l-1.23,0.225C217.199,363.605,215.284,363.732,213.65,363.732z"/>
	<path d="M558.644,386.968c-3.213,0-5.338-0.492-5.469-0.523l-1.153-0.273v-23.574h3v21.127c1.463,0.202,4.199,0.427,7.479-0.018
		v-20.492h3v23.022l-1.23,0.225C562.192,386.841,560.276,386.968,558.644,386.968z"/>
	<path d="M594.019,364.149c-3.213,0-5.338-0.492-5.469-0.523l-1.153-0.273v-7.745h3v5.298c1.464,0.201,4.198,0.427,7.479-0.018
		v-12.886h3v15.416l-1.23,0.225C597.567,364.022,595.651,364.149,594.019,364.149z"/>
</g>
<rect x="216.306" y="315.001" transform="matrix(0.9988 0.0495 -0.0495 0.9988 16.1337 -18.2305)" width="319.388" height="3"/>
</svg>
