<?xml version="1.0" encoding="utf-8"?>
<!-- Generator: Adobe Illustrator 15.1.0, SVG Export Plug-In . SVG Version: 6.00 Build 0)  -->
<!DOCTYPE svg PUBLIC "-//W3C//DTD SVG 1.1//EN" "http://www.w3.org/Graphics/SVG/1.1/DTD/svg11.dtd">
<svg version="1.1" id="Layer_1" xmlns="http://www.w3.org/2000/svg" xmlns:xlink="http://www.w3.org/1999/xlink" x="0px" y="0px"
	 width="500px" height="500px" viewBox="150 50 500 500" enable-background="new 150 50 500 500" xml:space="preserve">
<g id="Layer_2">
	<polygon points="494.123,233.5 241.036,216.628 241.036,200.018 244.036,200.018 244.036,213.821 494.322,230.507 	"/>
	<rect x="237.89" y="200.018" width="3" height="175.525"/>
	<polygon points="239.372,377.118 231.991,374.658 231.991,198.183 234.991,198.183 234.991,372.496 239.408,373.968 
		244.272,372.47 244.272,215.44 247.272,215.44 247.272,374.685 	"/>
	<path fill="none" stroke="#000000" stroke-width="3" stroke-miterlimit="10" d="M233.491,373.577"/>
	<path fill="none" stroke="#000000" stroke-width="3" stroke-miterlimit="10" d="M239.39,375.543"/>
	<rect x="500.063" y="215.225" width="3" height="202.396"/>
	<rect x="560.887" y="198.183" width="3" height="171.198"/>
	<polygon points="501.763,419.207 492.723,417.109 492.723,215.225 495.723,215.225 495.723,414.727 501.364,416.035 
		507.403,412.909 507.403,215.225 510.403,215.225 510.403,414.733 	"/>
	<polygon points="562.723,370.946 551.974,369.367 551.974,216.666 554.974,216.666 554.974,366.775 562.051,367.815 
		565.606,365.545 565.606,196.02 568.606,196.02 568.606,367.189 	"/>
	<rect x="505.504" y="210.374" width="3" height="6.292"/>
	<polygon points="506.634,218.375 505.672,215.533 569.408,193.961 569.408,192.742 506.012,212.249 505.129,209.381 
		572.408,188.68 572.408,196.112 	"/>
	<polygon points="506.905,218.163 226.092,199.587 226.092,192.266 507.093,208.876 506.915,211.872 229.092,195.448 
		229.092,196.778 507.103,215.169 	"/>
	<rect x="534.145" y="194.468" transform="matrix(0.3269 0.9451 -0.9451 0.3269 571.0942 -356.2734)" width="3" height="56.587"/>
	<polygon points="227.81,195.341 227.374,192.373 328.455,177.539 328.601,177.546 570.98,189.213 570.836,192.209 328.602,180.55 	
		"/>
	<rect x="327.048" y="220.959" width="3" height="115.651"/>
	<polygon points="328.779,339.472 321.045,337.824 321.045,220.559 324.045,220.559 324.045,335.396 328.316,336.306 
		331.781,334.41 331.781,221.273 334.781,221.273 334.781,336.189 	"/>
</g>
</svg>
