<?xml version="1.0" encoding="utf-8"?>
<!-- Generator: Adobe Illustrator 15.1.0, SVG Export Plug-In . SVG Version: 6.00 Build 0)  -->
<!DOCTYPE svg PUBLIC "-//W3C//DTD SVG 1.1//EN" "http://www.w3.org/Graphics/SVG/1.1/DTD/svg11.dtd">
<svg version="1.1" id="Layer_1" xmlns="http://www.w3.org/2000/svg" xmlns:xlink="http://www.w3.org/1999/xlink" x="0px" y="0px"
	 width="500px" height="500px" viewBox="0 0 500 500" enable-background="new 0 0 500 500" xml:space="preserve">
<g id="Layer_2">
	<rect x="423.5" y="238.333" width="3" height="125.667"/>
	<path d="M65.666,310.167c-0.829,0-1.5-0.672-1.5-1.5v-74c0-0.829,0.671-1.5,1.5-1.5s1.5,0.671,1.5,1.5v74
		C67.166,309.495,66.495,310.167,65.666,310.167z"/>
	<path d="M381.666,325.834c-0.828,0-1.5-0.672-1.5-1.5v-86.001c0-0.829,0.672-1.5,1.5-1.5s1.5,0.671,1.5,1.5v86.001
		C383.166,325.162,382.494,325.834,381.666,325.834z"/>
	
		<rect x="126.863" y="272.019" transform="matrix(0.9991 0.0432 -0.0432 0.9991 12.0546 -10.7324)" width="254.923" height="2.999"/>
	<rect x="402.03" y="204.792" transform="matrix(0.1947 0.9809 -0.9809 0.1947 540.6797 -218.7065)" width="3" height="30.245"/>
	<path d="M425.447,365.529l-0.535-0.032L40.245,342.83h-0.002c-4.49,0.001-8.076-6.221-8.076-14.163v-94h3v94
		c0,6.58,2.723,11.166,5.167,11.166l384.22,22.638l40.28-29.233V224h3v110.765L425.447,365.529z"/>
	<path d="M67.166,288.75h-3c0-13.458,5.806-20,17.75-20v3C71.715,271.75,67.166,276.993,67.166,288.75z"/>
	<rect x="102.936" y="246.577" transform="matrix(0.0501 0.9987 -0.9987 0.0501 368.0087 151.3486)" width="3" height="45.139"/>
	<path d="M35.166,234.667h-3c0-9.282,5.698-15.816,15.243-17.478l0.129-0.017l70.073-6.006l0.076,0.001L456.854,216l-0.043,3
		l-339.092-4.832l-69.859,5.988C39.91,221.564,35.166,226.984,35.166,234.667z"/>
	<path d="M67.166,234.667h-3c0-6.328,4.685-10.578,13.924-12.631l0.139-0.024l62.337-7.833l0.373,2.977l-62.267,7.824
		C70.931,226.714,67.166,229.883,67.166,234.667z"/>
	<path d="M383.166,238.333h-3c0-8.494,0-14.631,8.088-16.942l0.824,2.885C383.452,225.883,383.166,229.143,383.166,238.333z"/>
	<path d="M426.5,238.333h-3c0-4.884,0-9.103,2.567-13.138l0.305-0.479L456.621,216h0.212c10.47,0,11,6.664,11,8h-3
		c0-1.162-0.566-4.928-7.792-4.999l-28.729,8.278C426.5,230.437,426.5,233.784,426.5,238.333z"/>
	<path d="M128.471,268.288l-2.943-0.576l9.578-48.957l0.201-0.272c1.887-2.554,6.475-6.837,15.987-6.837v3
		c-7.866,0-11.708,3.244-13.376,5.36L128.471,268.288z"/>
	<path d="M61.316,363.732c-3.213,0-5.337-0.492-5.469-0.523l-1.153-0.273v-20.668h3v18.223c1.465,0.202,4.199,0.429,7.479-0.02
		v-17.586h3v20.116l-1.23,0.225C64.865,363.605,62.95,363.732,61.316,363.732z"/>
	<path d="M406.31,386.968c-3.213,0-5.338-0.492-5.469-0.521l-1.153-0.273v-23.574h3v21.127c1.465,0.202,4.199,0.429,7.479-0.018
		v-20.492h3v23.022l-1.229,0.225C409.858,386.841,407.942,386.968,406.31,386.968z"/>
	<path d="M441.685,364.149c-3.213,0-5.338-0.492-5.469-0.523l-1.153-0.273v-7.743h3v5.298c1.466,0.201,4.198,0.427,7.479-0.02
		v-12.886h3v15.416l-1.229,0.225C445.233,364.022,443.317,364.149,441.685,364.149z"/>
</g>
<rect x="64.044" y="314.993" transform="matrix(0.9988 0.0495 -0.0495 0.9988 15.9398 -10.6868)" width="319.403" height="3.002"/>
</svg>
