<?xml version="1.0" encoding="utf-8"?>
<!-- Generator: Adobe Illustrator 15.1.0, SVG Export Plug-In . SVG Version: 6.00 Build 0)  -->
<!DOCTYPE svg PUBLIC "-//W3C//DTD SVG 1.1//EN" "http://www.w3.org/Graphics/SVG/1.1/DTD/svg11.dtd">
<svg version="1.1" id="Layer_1" xmlns="http://www.w3.org/2000/svg" xmlns:xlink="http://www.w3.org/1999/xlink" x="0px" y="0px"
	 width="500px" height="500px" viewBox="0 0 500 500" enable-background="new 0 0 500 500" xml:space="preserve">
<g>
	<g id="Layer_2">
		<rect x="386.93" y="229.637" transform="matrix(-0.3978 -0.9175 0.9175 -0.3978 257.29 791.6239)" width="3" height="163.481"/>
		
			<rect x="386.975" y="257.397" transform="matrix(-0.4344 -0.9007 0.9007 -0.4344 250.3818 838.5636)" width="2.999" height="166.545"/>
		<path d="M313.27,405.354l-281.668-38l-1.299-1.486v-53l1.664-1.491l281.668,31l1.336,1.491v60L313.27,405.354z M33.303,364.556
			l278.668,37.597v-56.94l-278.668-30.67V364.556z"/>
		<polygon points="464.969,334.949 414.297,329.657 414.609,326.673 461.969,331.619 461.969,215.182 222.97,205.306 
			222.97,264.534 219.97,264.534 219.97,202.179 221.531,202.244 464.969,212.303 		"/>
		
			<rect x="221.282" y="270.202" transform="matrix(-0.9983 -0.0591 0.0591 -0.9983 668.3445 563.1714)" width="242.436" height="2.999"/>
		
			<rect x="125.122" y="190.831" transform="matrix(-0.2471 -0.969 0.969 -0.2471 -121.827 482.7356)" width="2.999" height="195.731"/>
		<polygon points="312.818,405.01 311.414,402.359 318.137,398.798 318.137,373.893 321.137,373.893 321.137,400.604 		"/>
		<polygon points="464.977,335.018 463.213,332.592 466.635,330.104 466.635,210.2 469.635,210.2 469.635,331.631 		"/>
		<rect x="464.292" y="209.017" transform="matrix(-0.6048 -0.7964 0.7964 -0.6048 578.7188 711.0751)" width="3" height="5.857"/>
		<polygon points="469.57,211.763 229.726,201.55 221.63,204.662 220.553,201.862 229.23,198.526 229.541,198.539 469.697,208.765 
					"/>
	</g>
	<g id="Layer_3">
		<g>
			<path fill="#FFFFFF" d="M442.135,264.398l-220.666-13.01l-164,37.313c-2.498,0.835-3.296,3.333-3.296,6.667v11.8l257.942,26.117
				l132.303-55.545v-9.227C444.418,266.239,444.418,265.034,442.135,264.398"/>
			<path d="M312.344,334.816l-0.379-0.039L52.674,308.523v-13.155c0-1.644,0-6.646,4.32-8.09l0.143-0.04l164.208-37.36l0.213,0.013
				l220.825,13.021l0.154,0.042c3.381,0.939,3.381,3.289,3.381,5.561v10.223L312.344,334.816z M55.674,305.813l256.213,25.94
				l131.031-55.011v-8.229c0-2.229-0.061-2.353-1.031-2.627l-220.293-12.99L57.881,290.145c-1.042,0.371-2.207,1.328-2.207,5.223
				V305.813L55.674,305.813z"/>
		</g>
		<rect x="310.615" y="320.226" width="3" height="13.059"/>
		<path d="M313.615,320.226h-3c0-5.147,1.809-10.358,5.262-10.358v3C315.295,312.867,313.615,315.397,313.615,320.226z"/>
		<path fill="none" stroke="#000000" stroke-width="3" stroke-miterlimit="10" d="M315.875,311.367"/>
		
			<rect x="377.479" y="220.525" transform="matrix(-0.3488 -0.9372 0.9372 -0.3488 241.3859 743.4781)" width="3.001" height="134.712"/>
		<rect x="60.517" y="298.14" transform="matrix(-0.9958 -0.0918 0.0918 -0.9958 348.6313 615.3151)" width="255.899" height="3"/>
	</g>
	<g id="Layer_4">
		<g>
			<path fill="#FFFFFF" d="M301.74,251.389c-6.008,12.039-1.711,14.317-28.459,12.95l-24.476-1.429
				c-19.024,1.623-26.024-0.746-16.504-13.809l10.819-16.245c4.938-13.769,4.938-11.902,23.439-11.019l22.279,1.855
				c26-1.736,27,0.75,18.516,17.839L301.74,251.389z"/>
			<path d="M284.158,266.191c-2.756,0-6.234-0.112-10.951-0.354l-24.382-1.423c-3.538,0.3-6.473,0.445-8.966,0.445
				c-7.324,0-11.244-1.285-12.71-4.168c-1.444-2.84-0.192-6.805,3.94-12.475l10.683-16.04c3.47-9.659,4.858-12.452,12.581-12.452
				c1.771,0,3.867,0.128,6.523,0.291c1.689,0.104,3.598,0.22,5.756,0.323l22.221,1.849c4.764-0.316,8.313-0.464,11.16-0.464
				c7.463,0,11.162,1.059,12.771,3.654c2.016,3.25,0.287,8.014-4.086,16.82l-5.654,9.932c-0.906,1.819-1.588,3.464-2.191,4.915
				C298.029,263.842,296.43,266.191,284.158,266.191z M248.785,261.406l24.584,1.436c4.654,0.238,8.088,0.35,10.789,0.35
				c10.895,0,11.477-1.401,13.926-7.297c0.619-1.496,1.324-3.19,2.314-5.176l5.654-9.93c2.969-5.985,5.557-11.612,4.182-13.83
				c-0.943-1.524-4.191-2.234-10.223-2.234c-2.803,0-6.32,0.147-11.072,0.465l-0.111,0.008l-0.111-0.01l-22.279-1.855
				c-2.121-0.1-4.041-0.217-5.744-0.322c-2.604-0.159-4.66-0.285-6.34-0.285c-5.555,0-6.289,0.795-9.818,10.637l-0.164,0.325
				l-10.82,16.243c-4.146,5.692-4.313,8.248-3.729,9.398c0.854,1.678,4.23,2.529,10.037,2.528c2.432,0,5.317-0.146,8.818-0.444
				L248.785,261.406z"/>
		</g>
		<g>
			<path fill="#FFFFFF" d="M393.461,255.21c-6.006,12.04-1.709,14.318-28.459,12.951l-24.477-1.429
				c-19.023,1.623-26.023-0.746-16.504-13.809l10.82-16.245c4.939-13.769,4.939-11.901,23.438-11.019l22.279,1.855
				c26-1.736,27,0.75,18.518,17.838L393.461,255.21z"/>
			<path d="M375.881,270.014c-2.756,0-6.236-0.112-10.955-0.354l-24.381-1.423c-3.537,0.299-6.473,0.445-8.965,0.445
				c-7.322,0-11.242-1.287-12.709-4.168c-1.445-2.84-0.193-6.804,3.938-12.474L333.492,236c3.471-9.659,4.859-12.452,12.582-12.452
				c1.771,0,3.865,0.128,6.521,0.291c1.691,0.104,3.598,0.22,5.758,0.323l22.221,1.849c4.762-0.316,8.311-0.464,11.158-0.464
				c7.465,0,11.164,1.059,12.773,3.654c2.016,3.249,0.289,8.012-4.084,16.82l-5.658,9.932c-0.904,1.818-1.586,3.462-2.189,4.913
				C389.752,267.662,388.15,270.014,375.881,270.014z M340.506,265.229l24.584,1.435c4.656,0.238,8.088,0.349,10.791,0.349
				c10.893,0,11.475-1.4,13.924-7.298c0.621-1.495,1.324-3.19,2.314-5.174l5.656-9.929c2.969-5.987,5.557-11.612,4.182-13.83
				c-0.945-1.524-4.195-2.234-10.227-2.234c-2.801,0-6.318,0.148-11.07,0.465l-0.111,0.008l-0.111-0.01l-22.279-1.855
				c-2.123-0.1-4.043-0.217-5.744-0.321c-2.605-0.159-4.66-0.285-6.338-0.285c-5.555,0-6.289,0.795-9.82,10.637l-0.164,0.326
				l-10.82,16.243c-4.146,5.692-4.311,8.248-3.727,9.398c0.854,1.678,4.23,2.529,10.037,2.529c2.432,0,5.314-0.146,8.816-0.444
				L340.506,265.229z"/>
		</g>
	</g>
</g>
</svg>
