<?xml version="1.0" encoding="utf-8"?>
<!-- Generator: Adobe Illustrator 15.1.0, SVG Export Plug-In . SVG Version: 6.00 Build 0)  -->
<!DOCTYPE svg PUBLIC "-//W3C//DTD SVG 1.0//EN" "http://www.w3.org/TR/2001/REC-SVG-20010904/DTD/svg10.dtd">
<svg version="1.0" id="Layer_1" xmlns="http://www.w3.org/2000/svg" xmlns:xlink="http://www.w3.org/1999/xlink" x="0px" y="0px"
	 width="800px" height="600px" viewBox="0 0 800 600" enable-background="new 0 0 800 600" xml:space="preserve">
<g id="Layer_2">
	<path fill="none" stroke="#000000" stroke-width="3" stroke-linecap="round" stroke-miterlimit="10" d="M190.667,166.537"/>
	<path fill="none" stroke="#000000" stroke-width="3" stroke-linecap="round" stroke-miterlimit="10" d="M353,112"/>
	<line fill="none" stroke="#000000" stroke-width="3" stroke-miterlimit="10" x1="228" y1="281" x2="228" y2="316"/>
	<line fill="none" stroke="#000000" stroke-width="3" stroke-miterlimit="10" x1="248" y1="263" x2="353" y2="260"/>
	<path fill="none" stroke="#000000" stroke-width="3" stroke-linecap="round" stroke-miterlimit="10" d="M190.667,166.537
		C197.667,157,308.965,116.795,365,112"/>
	<path fill="none" stroke="#000000" stroke-width="3" stroke-miterlimit="10" d="M228,281c0-9.949,8.945-18,20-18"/>
	<path fill="none" stroke="#000000" stroke-width="3" stroke-miterlimit="10" d="M228,316c0,6.08,4.473,11,10,11"/>
	<path fill="none" stroke="#000000" stroke-width="3" stroke-miterlimit="10" d="M365,112c91.001-24.667,184.334-24.667,231,4"/>
	<path fill="none" stroke="#000000" stroke-width="3" stroke-miterlimit="10" d="M596,116c26.001,18,26.001,28,22.667,44"/>
	<path fill="none" stroke="#000000" stroke-width="3" stroke-miterlimit="10" d="M502,435c0,4.605-2.043,6.667-6.833,6.667L207,409
		c-6.08,0-11-8.051-11-18l-4-104l-11.667-98c0-10.667,1.667-21.667,15.667-24c13.667-2.333,20.333,4.333,23,24l10.109,86.075"/>
	<path fill="none" stroke="#000000" stroke-width="3" stroke-miterlimit="10" d="M238,327l208,19c7.186,0,13-3.354,13-7.5l3.5-55.5
		l11.75-82.5c0-13.68,10.623-24.75,23.75-24.75c21.25,0,19.5,23,18,34.25l-12,106l-2,119"/>
	<path fill="none" stroke="#000000" stroke-width="3" stroke-miterlimit="10" d="M498.747,441.095L580,409
		c3.523,0,6.375-6.262,6.375-14L589,305l12.667-95l17-50"/>
	<path fill="none" stroke="#000000" stroke-width="3" stroke-linecap="round" stroke-miterlimit="10" d="M478.587,186.241
		C491.5,169,527.378,150.131,561.5,145"/>
	<path fill="none" stroke="#000000" stroke-width="3" stroke-linecap="round" stroke-miterlimit="10" d="M368.5,142
		c4.453,18,8.906,81.353,8.906,116.853"/>
	<path fill="none" stroke="#000000" stroke-width="3" stroke-linecap="round" stroke-miterlimit="10" d="M353,260
		c19.953-2.5,76-0.651,112.349,3"/>
	<path fill="none" stroke="#000000" stroke-width="3" stroke-linecap="round" stroke-miterlimit="10" d="M374.939,428.038
		l2.467,11.456c2.595,1.601,5.409,1.601,12.094,1.601l1.404-11.247"/>
	<path fill="none" stroke="#000000" stroke-width="3" stroke-linecap="round" stroke-miterlimit="10" d="M476.001,439.494L482,506.5
		c0,0,7,2.501,14,0l6.799-67.006"/>
	<path fill="none" stroke="#000000" stroke-width="3" stroke-linecap="round" stroke-miterlimit="10" d="M540.797,424.485L542,458.5
		c0,0,5.834,1.834,13.5,0l3.207-41.089"/>
	<path fill="none" stroke="#000000" stroke-width="3" stroke-miterlimit="10" d="M213.417,409.728L221,472c0,0,6,1.501,12,0
		l5-59.485"/>
</g>
</svg>
