<?xml version="1.0" encoding="utf-8"?>
<!-- Generator: Adobe Illustrator 15.1.0, SVG Export Plug-In . SVG Version: 6.00 Build 0)  -->
<!DOCTYPE svg PUBLIC "-//W3C//DTD SVG 1.0//EN" "http://www.w3.org/TR/2001/REC-SVG-20010904/DTD/svg10.dtd">
<svg version="1.0" id="Layer_1" xmlns="http://www.w3.org/2000/svg" xmlns:xlink="http://www.w3.org/1999/xlink" x="0px" y="0px"
	 width="800px" height="600px" viewBox="0 0 800 600" enable-background="new 0 0 800 600" xml:space="preserve">
<g id="Layer_2">
	<line fill="none" stroke="#000000" stroke-width="3" stroke-miterlimit="10" x1="179" y1="167" x2="533" y2="194"/>
	<line fill="none" stroke="#000000" stroke-width="3" stroke-miterlimit="10" x1="533" y1="206" x2="179" y2="180.5"/>
	<line fill="none" stroke="#000000" stroke-width="3" stroke-miterlimit="10" x1="533" y1="194" x2="533" y2="453.5"/>
	<line fill="none" stroke="#000000" stroke-width="3" stroke-miterlimit="10" x1="533" y1="194" x2="615" y2="167"/>
	<line fill="none" stroke="#000000" stroke-width="3" stroke-miterlimit="10" x1="533" y1="206" x2="615" y2="178.625"/>
	<line fill="none" stroke="#000000" stroke-width="3" stroke-miterlimit="10" x1="289" y1="340.232" x2="521.995" y2="367.5"/>
	<line fill="none" stroke="#000000" stroke-width="3" stroke-miterlimit="10" x1="188" y1="406" x2="188" y2="181.148"/>
	<polyline fill="none" stroke="#000000" stroke-width="3" stroke-miterlimit="10" points="521.995,205.207 521.995,453 533,453.5 
		615,406 615,167 289,145 179,167 179,406 188,406.917 289,364 289,212.653 	"/>
	<polyline fill="none" stroke="#000000" stroke-width="3" stroke-miterlimit="10" points="268,186.911 268,211 521.995,231 	"/>
</g>
</svg>
