<?xml version="1.0" encoding="utf-8"?>
<!-- Generator: Adobe Illustrator 15.1.0, SVG Export Plug-In . SVG Version: 6.00 Build 0)  -->
<!DOCTYPE svg PUBLIC "-//W3C//DTD SVG 1.1//EN" "http://www.w3.org/Graphics/SVG/1.1/DTD/svg11.dtd">
<svg version="1.1" id="Layer_1" xmlns="http://www.w3.org/2000/svg" xmlns:xlink="http://www.w3.org/1999/xlink" x="0px" y="0px"
	 width="500px" height="500px" viewBox="0 0 500 500" enable-background="new 0 0 500 500" xml:space="preserve">
<g id="Layer_2">
	<polygon points="344.873,233.5 91.786,216.628 91.786,200.018 94.786,200.018 94.786,213.821 345.072,230.507 	"/>
	<rect x="88.64" y="200.018" width="3" height="175.525"/>
	<polygon points="90.122,377.118 82.741,374.658 82.741,198.183 85.741,198.183 85.741,372.496 90.158,373.968 95.022,372.47 
		95.022,215.44 98.022,215.44 98.022,374.685 	"/>
	<path fill="none" stroke="#000000" stroke-width="3" stroke-miterlimit="10" d="M84.241,373.577"/>
	<path fill="none" stroke="#000000" stroke-width="3" stroke-miterlimit="10" d="M90.14,375.543"/>
	<rect x="350.813" y="215.225" width="3" height="202.396"/>
	<rect x="411.637" y="198.183" width="3" height="171.198"/>
	<polygon points="352.513,419.207 343.473,417.109 343.473,215.225 346.473,215.225 346.473,414.727 352.114,416.035 
		358.153,412.909 358.153,215.225 361.153,215.225 361.153,414.733 	"/>
	<polygon points="413.473,370.946 402.724,369.367 402.724,216.666 405.724,216.666 405.724,366.775 412.801,367.815 
		416.356,365.545 416.356,196.02 419.356,196.02 419.356,367.189 	"/>
	<rect x="356.254" y="210.374" width="3" height="6.292"/>
	<polygon points="357.384,218.375 356.422,215.533 420.158,193.961 420.158,192.742 356.762,212.249 355.879,209.381 
		423.158,188.68 423.158,196.112 	"/>
	<polygon points="357.655,218.163 76.842,199.587 76.842,192.266 357.843,208.876 357.665,211.872 79.842,195.448 79.842,196.778 
		357.853,215.169 	"/>
	<rect x="384.914" y="194.491" transform="matrix(-0.3271 -0.945 0.945 -0.3271 302.278 660.8157)" width="3.001" height="56.589"/>
	<polygon points="78.56,195.341 78.124,192.373 179.205,177.539 179.352,177.546 421.73,189.213 421.586,192.209 179.352,180.55 	
		"/>
	<rect x="177.798" y="220.959" width="3" height="115.651"/>
	<polygon points="179.529,339.472 171.795,337.824 171.795,220.559 174.795,220.559 174.795,335.396 179.066,336.306 
		182.531,334.41 182.531,221.273 185.531,221.273 185.531,336.189 	"/>
</g>
</svg>
