<?xml version="1.0" encoding="utf-8"?>
<!-- Generator: Adobe Illustrator 15.1.0, SVG Export Plug-In . SVG Version: 6.00 Build 0)  -->
<!DOCTYPE svg PUBLIC "-//W3C//DTD SVG 1.0//EN" "http://www.w3.org/TR/2001/REC-SVG-20010904/DTD/svg10.dtd">
<svg version="1.0" id="Layer_1" xmlns="http://www.w3.org/2000/svg" xmlns:xlink="http://www.w3.org/1999/xlink" x="0px" y="0px"
	 width="800px" height="600px" viewBox="0 0 800 600" enable-background="new 0 0 800 600" xml:space="preserve">
<g id="Layer_2">
	<line fill="none" stroke="#000000" stroke-width="3" stroke-miterlimit="10" x1="456" y1="81" x2="316" y2="92"/>
	<line fill="none" stroke="#000000" stroke-width="3" stroke-miterlimit="10" x1="456" y1="501" x2="316" y2="476"/>
	<polyline fill="none" stroke="#000000" stroke-width="3" stroke-linecap="square" stroke-miterlimit="10" points="456,512.667 
		321.333,488.5 316,491 316,92 	"/>
	<path fill="none" stroke="#000000" stroke-width="3" stroke-miterlimit="10" d="M456.333,80.833L482.5,86.5L456.333,80.833z"/>
	<polygon fill="none" stroke="#000000" stroke-width="3" stroke-miterlimit="10" points="456,81 456,519 482.5,501 482.5,86.5 	"/>
	<line fill="none" stroke="#000000" stroke-width="3" stroke-miterlimit="10" x1="345.667" y1="224.089" x2="345.667" y2="277"/>
	<line fill="none" stroke="#000000" stroke-width="3" stroke-miterlimit="10" x1="345.667" y1="101.667" x2="456.333" y2="92"/>
	<line fill="none" stroke="#000000" stroke-width="3" stroke-miterlimit="10" x1="345.667" y1="101.667" x2="316" y2="92"/>
	<line fill="none" stroke="#000000" stroke-width="3" stroke-miterlimit="10" x1="316" y1="156" x2="456" y2="152"/>
	<line fill="none" stroke="#000000" stroke-width="3" stroke-miterlimit="10" x1="316" y1="284.333" x2="456" y2="290"/>
	<line fill="none" stroke="#000000" stroke-width="3" stroke-miterlimit="10" x1="316" y1="347.667" x2="456" y2="357.667"/>
	<line fill="none" stroke="#000000" stroke-width="3" stroke-miterlimit="10" x1="316" y1="411.667" x2="456" y2="428"/>
	<line fill="none" stroke="#000000" stroke-width="3" stroke-miterlimit="10" x1="345.667" y1="277" x2="316" y2="284.333"/>
	<line fill="none" stroke="#000000" stroke-width="3" stroke-miterlimit="10" x1="345.667" y1="277" x2="456" y2="280.667"/>
	<line fill="none" stroke="#000000" stroke-width="3" stroke-miterlimit="10" x1="345.667" y1="285.534" x2="345.667" y2="339"/>
	<line fill="none" stroke="#000000" stroke-width="3" stroke-miterlimit="10" x1="345.667" y1="339" x2="316" y2="347.667"/>
	<line fill="none" stroke="#000000" stroke-width="3" stroke-miterlimit="10" x1="345.667" y1="339" x2="456" y2="345.5"/>
	<line fill="none" stroke="#000000" stroke-width="3" stroke-miterlimit="10" x1="345.667" y1="349.786" x2="345.667" y2="400.5"/>
	<line fill="none" stroke="#000000" stroke-width="3" stroke-miterlimit="10" x1="345.667" y1="400.5" x2="316" y2="411.667"/>
	<line fill="none" stroke="#000000" stroke-width="3" stroke-miterlimit="10" x1="345.667" y1="400.5" x2="456" y2="411.667"/>
	<line fill="none" stroke="#000000" stroke-width="3" stroke-miterlimit="10" x1="345.667" y1="415.128" x2="345.667" y2="461"/>
	<line fill="none" stroke="#000000" stroke-width="3" stroke-miterlimit="10" x1="345.667" y1="461" x2="316" y2="473.5"/>
	<line fill="none" stroke="#000000" stroke-width="3" stroke-miterlimit="10" x1="345.667" y1="461" x2="456" y2="476"/>
	<line fill="none" stroke="#000000" stroke-width="3" stroke-miterlimit="10" x1="345.667" y1="217.5" x2="345.667" y2="163.5"/>
	<line fill="none" stroke="#000000" stroke-width="3" stroke-miterlimit="10" x1="345.667" y1="163.5" x2="316" y2="156"/>
	<line fill="none" stroke="#000000" stroke-width="3" stroke-miterlimit="10" x1="345.667" y1="163.5" x2="456" y2="161.625"/>
	
		<line fill="none" stroke="#000000" stroke-width="3" stroke-miterlimit="10" x1="345.667" y1="101.667" x2="345.667" y2="155.152"/>
	<line fill="none" stroke="#000000" stroke-width="3" stroke-miterlimit="10" x1="456" y1="226.667" x2="316" y2="223.396"/>
	<line fill="none" stroke="#000000" stroke-width="3" stroke-miterlimit="10" x1="345.667" y1="217.5" x2="316" y2="223.396"/>
	<line fill="none" stroke="#000000" stroke-width="3" stroke-miterlimit="10" x1="345.667" y1="217.5" x2="456.333" y2="219.5"/>
	<line fill="none" stroke="#000000" stroke-width="3" stroke-miterlimit="10" x1="321.333" y1="488.5" x2="321.333" y2="477.012"/>
</g>
</svg>
