<?xml version="1.0" encoding="utf-8"?>
<!-- Generator: Adobe Illustrator 15.1.0, SVG Export Plug-In . SVG Version: 6.00 Build 0)  -->
<!DOCTYPE svg PUBLIC "-//W3C//DTD SVG 1.0//EN" "http://www.w3.org/TR/2001/REC-SVG-20010904/DTD/svg10.dtd">
<svg version="1.0" id="Layer_1" xmlns="http://www.w3.org/2000/svg" xmlns:xlink="http://www.w3.org/1999/xlink" x="0px" y="0px"
	 width="800px" height="600px" viewBox="0 0 800 600" enable-background="new 0 0 800 600" xml:space="preserve">
<g id="Layer_2">
	<line fill="none" stroke="#000000" stroke-width="3" stroke-miterlimit="10" x1="516" y1="84" x2="503" y2="253"/>
	<line fill="none" stroke="#000000" stroke-width="3" stroke-miterlimit="10" x1="503" y1="253" x2="503" y2="300.75"/>
	<line fill="none" stroke="#000000" stroke-width="3" stroke-miterlimit="10" x1="273" y1="300.75" x2="366" y2="293.75"/>
	<line fill="none" stroke="#000000" stroke-width="3" stroke-miterlimit="10" x1="428" y1="317" x2="503" y2="306"/>
	
		<line fill="none" stroke="#000000" stroke-width="3" stroke-miterlimit="10" x1="297.343" y1="309.835" x2="297.343" y2="501.333"/>
	<line fill="none" stroke="#000000" stroke-width="3" stroke-miterlimit="10" x1="297.343" y1="334.667" x2="414" y2="344"/>
	<line fill="none" stroke="#000000" stroke-width="3" stroke-miterlimit="10" x1="428" y1="317" x2="428" y2="518.25"/>
	<line fill="none" stroke="#000000" stroke-width="3" stroke-miterlimit="10" x1="503" y1="300.75" x2="503" y2="483.333"/>
	<line fill="none" stroke="#000000" stroke-width="3" stroke-miterlimit="10" x1="503" y1="325.333" x2="437.334" y2="339.334"/>
	<polyline fill="none" stroke="#000000" stroke-width="3" stroke-miterlimit="10" points="304.667,335.253 304.667,498 
		297.343,501.333 279.838,498 279.838,308.875 	"/>
	<line fill="none" stroke="#000000" stroke-width="3" stroke-miterlimit="10" x1="365.02" y1="340.081" x2="365.02" y2="424.882"/>
	
		<line fill="none" stroke="#000000" stroke-width="3" stroke-miterlimit="10" x1="379.037" y1="341.203" x2="379.037" y2="472.334"/>
	<polyline fill="none" stroke="#000000" stroke-width="3" stroke-miterlimit="10" points="304.667,442.667 373.667,422.334 
		373.667,430.001 304.667,452.001 	"/>
	<polyline fill="none" stroke="#000000" stroke-width="3" stroke-miterlimit="10" points="365.02,432.758 365.02,469.334 
		379.037,472.334 386.667,467.75 386.667,341.814 	"/>
	<polyline fill="none" stroke="#000000" stroke-width="3" stroke-miterlimit="10" points="437.334,460 497.75,435 497.75,442.667 
		437.334,469.334 	"/>
	<line fill="none" stroke="#000000" stroke-width="3" stroke-miterlimit="10" x1="490" y1="438.207" x2="490" y2="328.104"/>
	<polyline fill="none" stroke="#000000" stroke-width="3" stroke-miterlimit="10" points="437.334,314.718 437.334,516 428,518.25 
		414,516 414,316.232 	"/>
	<polyline fill="none" stroke="#000000" stroke-width="3" stroke-miterlimit="10" points="509.5,253 510.5,481.25 503,483.333 
		490,481.25 490,446.088 	"/>
	<line fill="none" stroke="#000000" stroke-width="3" stroke-miterlimit="10" x1="503" y1="300.75" x2="366" y2="293.75"/>
	<line fill="none" stroke="#000000" stroke-width="3" stroke-miterlimit="10" x1="490" y1="253" x2="490" y2="300"/>
	<line fill="none" stroke="#000000" stroke-width="3" stroke-miterlimit="10" x1="366" y1="293.75" x2="366" y2="243.998"/>
	
		<line fill="none" stroke="#000000" stroke-width="3" stroke-miterlimit="10" x1="379.993" y1="294.464" x2="379.993" y2="243.998"/>
	
		<line fill="none" stroke="#000000" stroke-width="3" stroke-miterlimit="10" x1="386.344" y1="294.789" x2="386.344" y2="243.998"/>
	<polyline fill="none" stroke="#000000" stroke-width="3" stroke-miterlimit="10" points="499.448,130.17 393.625,130.17 
		395.563,108.833 501.154,107.988 	"/>
	
		<line fill="none" stroke="#000000" stroke-width="3" stroke-miterlimit="10" x1="386.344" y1="243.998" x2="389.695" y2="206.126"/>
	<line fill="none" stroke="#000000" stroke-width="3" stroke-miterlimit="10" x1="379.993" y1="243.998" x2="393.172" y2="87.333"/>
	<line fill="none" stroke="#000000" stroke-width="3" stroke-miterlimit="10" x1="396.586" y1="130.17" x2="391.513" y2="186.09"/>
	<polyline fill="none" stroke="#000000" stroke-width="3" stroke-miterlimit="10" points="495.012,187.847 388.857,186 387.182,206 
		493.271,210.473 	"/>
	<polyline fill="none" stroke="#000000" stroke-width="3" stroke-miterlimit="10" points="398.4,108.643 400,89.667 393.172,87.333 
		379.993,87.333 366,243.998 	"/>
	<polyline fill="none" stroke="#000000" stroke-width="3" stroke-miterlimit="10" points="509.5,253 522.334,84.833 516,84 503,84 
		490,253 	"/>
	<path fill="none" stroke="#000000" stroke-width="3" stroke-miterlimit="10" d="M273,309.719"/>
	<line fill="none" stroke="#000000" stroke-width="3" stroke-miterlimit="10" x1="428" y1="309.835" x2="428" y2="317"/>
	<line fill="none" stroke="#000000" stroke-width="3" stroke-miterlimit="10" x1="428" y1="309.835" x2="503" y2="300.75"/>
	<polyline fill="none" stroke="#000000" stroke-width="3" stroke-miterlimit="10" points="428,317 273,308.5 273,300.75 
		428,309.835 	"/>
</g>
</svg>
