<?xml version="1.0" encoding="utf-8"?>
<!-- Generator: Adobe Illustrator 15.1.0, SVG Export Plug-In . SVG Version: 6.00 Build 0)  -->
<!DOCTYPE svg PUBLIC "-//W3C//DTD SVG 1.1//EN" "http://www.w3.org/Graphics/SVG/1.1/DTD/svg11.dtd">
<svg version="1.1" id="Layer_1" xmlns="http://www.w3.org/2000/svg" xmlns:xlink="http://www.w3.org/1999/xlink" x="0px" y="0px"
	 width="500px" height="500px" viewBox="0 0 500 500" enable-background="new 0 0 500 500" xml:space="preserve">
<g id="Layer_2">
	<rect x="161.074" y="249.836" width="3" height="103.922"/>
	
		<rect x="152.512" y="252.998" transform="matrix(-0.9958 -0.0915 0.0915 -0.9958 402.6816 527.4572)" width="121.839" height="3.001"/>
	<rect x="272.588" y="244.027" width="3" height="130.249"/>
	<rect x="309.175" y="214.618" transform="matrix(-0.2142 -0.9768 0.9768 -0.2142 130.997 609.5159)" width="3" height="74.894"/>
	<rect x="339.316" y="245.438" width="3" height="97.466"/>
	<polygon points="340.889,344.434 328.729,342.554 328.729,247.434 331.729,247.434 331.729,339.981 340.742,341.375 
		345.74,340.102 345.74,228.7 348.74,228.7 348.74,342.434 	"/>
	<polygon points="274.408,375.802 260.08,374.78 260.08,258.936 263.08,258.936 263.08,371.987 273.766,372.749 280.195,369.357 
		280.195,258.416 283.195,258.416 283.195,371.166 	"/>
	<path d="M274.17,245.538l-0.197-0.015l-121.328-9.367l-0.112-2.979l84.028-12.962l110.792,8.488l0.164,2.97L274.17,245.538z
		 M165.817,234.164l108.187,8.353l61.826-11.687l-99.153-7.597L165.817,234.164z"/>
	<rect x="236.876" y="256.805" width="3" height="70.337"/>
	<polygon points="238.448,328.672 227.547,326.936 227.547,255.945 230.547,255.945 230.547,324.375 238.307,325.611 
		242.708,324.489 242.708,257.339 245.708,257.339 245.708,326.821 	"/>
	<polygon points="162.831,355.307 151.26,353.728 151.26,233.16 154.26,233.16 154.26,351.108 162.317,352.209 169.996,348.369 
		169.996,249.999 172.996,249.999 172.996,350.223 	"/>
</g>
</svg>
