<?xml version="1.0" encoding="utf-8"?>
<!-- Generator: Adobe Illustrator 15.1.0, SVG Export Plug-In . SVG Version: 6.00 Build 0)  -->
<!DOCTYPE svg PUBLIC "-//W3C//DTD SVG 1.1//EN" "http://www.w3.org/Graphics/SVG/1.1/DTD/svg11.dtd">
<svg version="1.1" id="Layer_1" xmlns="http://www.w3.org/2000/svg" xmlns:xlink="http://www.w3.org/1999/xlink" x="0px" y="0px"
	 width="500px" height="500px" viewBox="150 50 500 500" enable-background="new 150 50 500 500" xml:space="preserve">
<g id="Layer_2">
	<rect x="384.5" y="16.284" transform="matrix(0.0784 0.9969 -0.9969 0.0784 441.9564 -305.0959)" width="3" height="140.432"/>
	<rect x="314.893" y="487" transform="matrix(0.9844 0.1758 -0.1758 0.9844 91.8847 -60.248)" width="142.215" height="3"/>
	<polygon points="457.212,514.408 321.538,490.061 314.5,493.359 314.5,90.5 317.5,90.5 317.5,488.641 321.128,486.939 
		321.598,487.023 457.741,511.455 	"/>
	<rect x="456.03" y="82.167" transform="matrix(0.9773 0.2117 -0.2117 0.9773 28.3448 -97.4626)" width="26.774" height="3"/>
	<path d="M454.5,521.832V79.157l29.5,6.123v416.516L454.5,521.832z M457.5,82.843v433.325l23.5-15.963V87.721L457.5,82.843z"/>
	<rect x="344.167" y="224.089" width="3" height="52.911"/>
	<rect x="399.5" y="41.29" transform="matrix(0.0869 0.9962 -0.9962 0.0869 462.61 -311.0656)" width="3" height="111.087"/>
	<rect x="315.232" y="95.333" transform="matrix(0.9508 0.3098 -0.3098 0.9508 46.2789 -97.7333)" width="31.202" height="3"/>
	<rect x="384.5" y="83.971" transform="matrix(0.0286 0.9996 -0.9996 0.0286 528.8804 -236.2527)" width="3" height="140.057"/>
	<rect x="315.943" y="285.667" transform="matrix(0.9992 0.0404 -0.0404 0.9992 11.9304 -15.377)" width="140.115" height="3"/>
	<rect x="315.822" y="351.167" transform="matrix(0.9975 0.0712 -0.0712 0.9975 26.1073 -26.605)" width="140.357" height="3"/>
	<rect x="315.525" y="418.333" transform="matrix(0.9933 0.1159 -0.1159 0.9933 51.25 -41.9008)" width="140.95" height="3.001"/>
	<rect x="329.334" y="265.387" transform="matrix(0.2399 0.9708 -0.9708 0.2399 523.9247 -107.8438)" width="3" height="30.56"/>
	<rect x="345.637" y="277.334" transform="matrix(0.9994 0.0332 -0.0332 0.9994 9.4833 -13.1608)" width="110.394" height="3"/>
	<rect x="344.167" y="285.534" width="3" height="53.466"/>
	<rect x="329.334" y="327.88" transform="matrix(0.2804 0.9599 -0.9599 0.2804 567.6494 -70.4864)" width="2.999" height="30.907"/>
	<rect x="345.571" y="340.75" transform="matrix(0.9983 0.0588 -0.0588 0.9983 20.8216 -22.9808)" width="110.525" height="2.999"/>
	<rect x="344.167" y="349.786" width="3" height="50.714"/>
	<rect x="329.333" y="390.234" transform="matrix(0.3521 0.936 -0.936 0.3521 594.4154 -46.5524)" width="3.001" height="31.699"/>
	<rect x="345.385" y="404.584" transform="matrix(0.9949 0.1007 -0.1007 0.9949 42.9291 -38.2989)" width="110.896" height="3"/>
	<rect x="344.167" y="415.128" width="3" height="45.872"/>
	<rect x="329.334" y="451.154" transform="matrix(0.3884 0.9215 -0.9215 0.3884 632.878 -19.1063)" width="2.999" height="32.193"/>
	<rect x="345.16" y="467" transform="matrix(0.9909 0.1347 -0.1347 0.9909 66.7667 -49.7269)" width="111.348" height="3"/>
	<rect x="344.167" y="163.5" width="3" height="54"/>
	<rect x="315.533" y="158.25" transform="matrix(0.9695 0.2451 -0.2451 0.9695 49.2448 -76.2132)" width="30.6" height="3"/>
	<rect x="399.333" y="107.388" transform="matrix(0.0169 0.9999 -0.9999 0.0169 556.5887 -240.9649)" width="3" height="110.349"/>
	<rect x="344.167" y="101.667" width="3" height="53.485"/>
	<rect x="315.981" y="223.532" transform="matrix(0.9997 0.0234 -0.0234 0.9997 5.3616 -8.9548)" width="140.038" height="3"/>
	<rect x="329.334" y="205.324" transform="matrix(0.195 0.9808 -0.9808 0.195 482.5411 -147.0203)" width="3" height="30.247"/>
	<rect x="345.658" y="217" transform="matrix(0.9998 0.0181 -0.0181 0.9998 4.0136 -7.2102)" width="110.684" height="3"/>
	<rect x="319.833" y="477.012" width="3" height="11.488"/>
</g>
</svg>
