<?xml version="1.0" encoding="utf-8"?>
<!-- Generator: Adobe Illustrator 15.1.0, SVG Export Plug-In . SVG Version: 6.00 Build 0)  -->
<!DOCTYPE svg PUBLIC "-//W3C//DTD SVG 1.1//EN" "http://www.w3.org/Graphics/SVG/1.1/DTD/svg11.dtd">
<svg version="1.1" id="Layer_1" xmlns="http://www.w3.org/2000/svg" xmlns:xlink="http://www.w3.org/1999/xlink" x="0px" y="0px"
	 width="500px" height="500px" viewBox="0 0 500 500" enable-background="new 0 0 500 500" xml:space="preserve">
<g id="Layer_2">
	
		<rect x="331.082" y="140.455" transform="matrix(-0.997 -0.0768 0.0768 -0.997 648.5745 431.1236)" width="2.999" height="125.256"/>
	<rect x="326.291" y="265.561" width="3" height="35.287"/>
	
		<rect x="190.675" y="263.813" transform="matrix(-0.0755 -0.9971 0.9971 -0.0755 -90.7381 512.4225)" width="3.001" height="68.925"/>
	
		<rect x="298.598" y="280.791" transform="matrix(-0.1458 -0.9893 0.9893 -0.1458 38.3489 650.7152)" width="3.001" height="56.021"/>
	<rect x="174.306" y="307.563" width="3" height="141.52"/>
	
		<rect x="175.648" y="327.875" transform="matrix(-0.9968 -0.0798 0.0798 -0.9968 410.8018 675.1664)" width="86.487" height="3.001"/>
	<rect x="270.863" y="312.856" width="3" height="148.727"/>
	<rect x="326.291" y="300.848" width="3" height="134.933"/>
	<rect x="302.055" y="299.366" transform="matrix(-0.2084 -0.978 0.978 -0.2084 49.7729 688.6327)" width="2.998" height="49.617"/>
	<polygon points="175.995,450.644 161.371,447.859 161.371,306.853 164.371,306.853 164.371,445.377 175.62,447.519 179.72,445.652 
		179.72,326.346 182.72,326.346 182.72,447.584 	"/>
	<rect x="224.322" y="329.914" width="3" height="62.669"/>
	<rect x="234.679" y="330.743" width="3" height="96.907"/>
	<polygon points="181.675,414.053 180.763,411.195 230.712,395.271 230.712,392.706 181.644,407.165 180.796,404.288 
		233.712,388.694 233.712,397.462 	"/>
	<polygon points="236.446,429.241 224.322,426.646 224.322,398.403 227.322,398.403 227.322,424.221 235.915,426.06 
		240.319,423.414 240.319,331.195 243.319,331.195 243.319,425.111 	"/>
	<polygon points="279.867,426.806 278.656,424.063 322.41,404.749 322.41,402.305 279.836,419.921 278.689,417.149 325.41,397.816 
		325.41,406.704 	"/>
	<rect x="316.684" y="321.063" width="3" height="81.368"/>
	<polygon points="272.422,463.111 260.518,461.198 260.518,312.29 263.518,312.29 263.518,458.642 272.305,460.055 277.762,458.738 
		277.762,311.17 280.762,311.17 280.762,461.102 	"/>
	<polygon points="327.877,437.313 316.684,435.518 316.684,408.254 319.684,408.254 319.684,432.961 327.705,434.246 
		331.828,433.101 331.094,265.566 334.094,265.555 334.838,435.378 	"/>
	<rect x="226.488" y="296.751" transform="matrix(-0.9987 -0.051 0.051 -0.9987 538.7847 610.2489)" width="101.378" height="3"/>
	<rect x="316.684" y="265.561" width="3" height="34.732"/>
	<rect x="225.046" y="258.908" width="3" height="36.767"/>
	<rect x="235.386" y="258.908" width="3" height="37.294"/>
	<rect x="240.08" y="258.908" width="3" height="37.535"/>
	<polygon points="325.166,176.287 245.318,176.287 247.022,157.53 326.414,156.894 326.438,159.894 249.764,160.508 
		248.603,173.287 325.166,173.287 	"/>
	<rect x="241.321" y="230.858" transform="matrix(-0.9961 -0.0882 0.0882 -0.9961 463.09 510.28)" width="3" height="28.097"/>
	<rect x="240.27" y="142.918" transform="matrix(-0.9965 -0.0838 0.0838 -0.9965 465.838 421.5837)" width="3" height="116.187"/>
	<rect x="245.778" y="174.7" transform="matrix(-0.9959 -0.0905 0.0905 -0.9959 475.8483 412.477)" width="2.999" height="41.495"/>
	<polygon points="320.537,235.631 240.574,232.259 242.06,214.522 321.912,215.911 321.859,218.911 244.815,217.571 
		243.824,229.394 320.664,232.634 	"/>
	<polygon points="228.04,259.041 225.052,258.773 235.515,141.63 246.876,141.63 253.266,143.814 251.984,159.004 248.995,158.752 
		250.079,145.896 246.376,144.63 238.259,144.63 	"/>
	<polygon points="319.678,265.675 316.688,265.445 326.402,139.167 337.594,139.18 343.682,139.981 343.574,141.397 334.09,265.674 
		331.098,265.445 340.475,142.584 337.299,142.167 329.18,142.167 	"/>
	<path fill="none" stroke="#000000" stroke-width="3" stroke-miterlimit="10" d="M157.818,307.476"/>
	<rect x="270.863" y="307.563" width="3" height="5.295"/>
	
		<rect x="298.571" y="276.271" transform="matrix(-0.1205 -0.9927 0.9927 -0.1205 34.2483 638.7156)" width="2.999" height="55.83"/>
	<polygon points="272.281,314.354 156.318,307.995 156.318,299.257 272.451,306.064 272.275,309.059 159.318,302.438 
		159.318,305.154 272.445,311.358 	"/>
</g>
</svg>
