<?xml version="1.0" encoding="utf-8"?>
<!-- Generator: Adobe Illustrator 15.1.0, SVG Export Plug-In . SVG Version: 6.00 Build 0)  -->
<!DOCTYPE svg PUBLIC "-//W3C//DTD SVG 1.1//EN" "http://www.w3.org/Graphics/SVG/1.1/DTD/svg11.dtd">
<svg version="1.1" id="Layer_1" xmlns="http://www.w3.org/2000/svg" xmlns:xlink="http://www.w3.org/1999/xlink" x="0px" y="0px"
	 width="500px" height="500px" viewBox="150 50 500 500" enable-background="new 150 50 500 500" xml:space="preserve">
<g id="Layer_2">
	<rect x="534.162" y="239.175" transform="matrix(0.3978 0.9175 -0.9175 0.3978 616.9749 -298.2048)" width="3" height="163.478"/>
	
		<rect x="534.163" y="266.953" transform="matrix(0.4344 0.9007 -0.9007 0.4344 618.4245 -284.3937)" width="2.999" height="166.548"/>
	<path d="M460.462,414.9l-281.667-38l-1.299-1.486v-53l1.664-1.491l281.667,31l1.336,1.491v60L460.462,414.9z M180.496,374.103
		l278.667,37.596v-56.94l-278.667-30.67V374.103z"/>
	<polygon points="612.162,344.496 561.49,339.204 561.803,336.22 609.162,341.166 609.162,224.729 370.163,214.853 370.163,274.081 
		367.163,274.081 367.163,211.726 368.725,211.791 612.162,221.85 	"/>
	<rect x="368.451" y="279.747" transform="matrix(0.9983 0.0591 -0.0591 0.9983 17.485 -28.4587)" width="242.424" height="3"/>
	<rect x="272.329" y="200.383" transform="matrix(0.2471 0.969 -0.969 0.2471 495.1542 -40.794)" width="2.999" height="195.729"/>
	<polygon points="460.011,414.557 458.606,411.906 465.33,408.345 465.33,383.439 468.33,383.439 468.33,410.151 	"/>
	<polygon points="612.169,344.564 610.405,342.139 613.828,339.65 613.828,219.747 616.828,219.747 616.828,341.178 	"/>
	<rect x="611.495" y="218.589" transform="matrix(0.6047 0.7964 -0.7964 0.6047 418.7236 -400.649)" width="3" height="5.858"/>
	<polygon points="616.763,221.31 376.919,211.097 368.823,214.209 367.746,211.409 376.424,208.073 376.735,208.086 
		616.891,218.312 	"/>
</g>
<g id="Layer_3">
	<g>
		<path fill="#FFFFFF" d="M589.328,273.946l-220.666-13.011l-164,37.313c-2.498,0.835-3.296,3.333-3.296,6.667v11.8l257.942,26.117
			l132.303-55.545v-9.226C591.611,275.786,591.611,274.581,589.328,273.946"/>
		<path d="M459.537,344.363l-0.38-0.039L199.867,318.07v-13.155c0-1.644,0-6.646,4.32-8.09l0.143-0.04l164.208-37.36l0.213,0.012
			l220.825,13.021l0.153,0.042c3.382,0.94,3.382,3.289,3.382,5.56v10.223L459.537,344.363z M202.867,315.359l256.213,25.941
			l131.031-55.011v-8.229c0-2.229-0.061-2.352-1.032-2.627l-220.292-12.989l-163.713,37.248c-1.042,0.37-2.207,1.328-2.207,5.222
			V315.359z"/>
	</g>
	<rect x="457.809" y="329.772" width="3" height="13.059"/>
	<path d="M460.809,329.772h-3c0-5.147,1.807-10.358,5.26-10.358v3C462.487,322.414,460.809,324.944,460.809,329.772z"/>
	<path fill="none" stroke="#000000" stroke-width="3" stroke-miterlimit="10" d="M463.068,320.914"/>
	
		<rect x="524.698" y="230.074" transform="matrix(0.3488 0.9372 -0.9372 0.3488 621.3857 -299.4689)" width="3.001" height="134.712"/>
	<rect x="207.715" y="307.672" transform="matrix(0.9958 0.0918 -0.0918 0.9958 29.7906 -29.5003)" width="255.893" height="3"/>
</g>
<g id="Layer_4">
	<g>
		<path fill="#FFFFFF" d="M448.934,260.935c-6.008,12.04-1.711,14.318-28.459,12.951l-24.476-1.429
			c-19.025,1.623-26.025-0.746-16.504-13.809l10.82-16.244c4.938-13.769,4.938-11.902,23.439-11.019l22.279,1.855
			c26-1.736,27,0.75,18.516,17.839L448.934,260.935z"/>
		<path d="M431.351,275.738c-2.755,0-6.234-0.112-10.952-0.354l-24.38-1.423c-3.539,0.3-6.473,0.445-8.966,0.445
			c-7.324,0-11.244-1.285-12.71-4.168c-1.444-2.84-0.192-6.804,3.94-12.474l10.683-16.04c3.469-9.659,4.858-12.452,12.581-12.452
			c1.771,0,3.867,0.128,6.522,0.291c1.69,0.104,3.598,0.22,5.757,0.323l22.221,1.849c4.763-0.316,8.311-0.464,11.159-0.464
			c7.463,0,11.163,1.059,12.772,3.654c2.015,3.25,0.288,8.013-4.085,16.82l-5.655,9.932c-0.906,1.819-1.589,3.464-2.191,4.915
			C445.223,273.388,443.622,275.738,431.351,275.738z M395.979,270.953l24.584,1.436c4.654,0.238,8.086,0.349,10.788,0.349
			c10.894,0,11.476-1.401,13.925-7.296c0.621-1.496,1.325-3.191,2.316-5.177l5.653-9.929c2.97-5.986,5.558-11.612,4.183-13.83
			c-0.945-1.524-4.193-2.234-10.223-2.234c-2.803,0-6.32,0.147-11.072,0.465l-0.112,0.008l-0.111-0.01l-22.279-1.855
			c-2.122-0.1-4.042-0.217-5.745-0.322c-2.604-0.159-4.66-0.285-6.339-0.285c-5.555,0-6.289,0.795-9.819,10.637l-0.164,0.325
			l-10.82,16.244c-4.147,5.692-4.313,8.248-3.728,9.398c0.854,1.678,4.23,2.529,10.036,2.528c2.433,0,5.318-0.145,8.819-0.444
			L395.979,270.953z"/>
	</g>
	<g>
		<path fill="#FFFFFF" d="M540.654,264.757c-6.006,12.04-1.709,14.318-28.459,12.951l-24.477-1.429
			c-19.023,1.623-26.023-0.746-16.504-13.809l10.82-16.244c4.941-13.769,4.941-11.902,23.439-11.019l22.279,1.855
			c26-1.736,27,0.75,18.518,17.839L540.654,264.757z"/>
		<path d="M523.073,279.56c-2.755,0-6.236-0.112-10.954-0.354l-24.381-1.423c-3.538,0.299-6.472,0.445-8.965,0.445
			c-7.323,0-11.243-1.286-12.71-4.168c-1.444-2.84-0.192-6.803,3.939-12.473l10.683-16.04c3.471-9.659,4.86-12.452,12.583-12.452
			c1.77,0,3.865,0.128,6.52,0.291c1.691,0.104,3.598,0.22,5.758,0.323l22.221,1.849c4.762-0.316,8.311-0.464,11.158-0.464
			c7.465,0,11.165,1.059,12.774,3.654c2.015,3.249,0.288,8.012-4.084,16.82l-5.658,9.932c-0.904,1.818-1.587,3.462-2.189,4.913
			C536.944,277.209,535.344,279.56,523.073,279.56z M487.698,274.775l24.585,1.435c4.655,0.238,8.087,0.349,10.79,0.349
			c10.893,0,11.475-1.401,13.924-7.298c0.621-1.495,1.325-3.19,2.315-5.174l5.656-9.929c2.969-5.987,5.556-11.612,4.181-13.83
			c-0.945-1.524-4.194-2.234-10.225-2.234c-2.802,0-6.32,0.148-11.071,0.465l-0.112,0.008l-0.111-0.01l-22.279-1.855
			c-2.123-0.1-4.043-0.217-5.745-0.321c-2.604-0.159-4.659-0.285-6.337-0.285c-5.555,0-6.289,0.795-9.821,10.638l-0.164,0.325
			l-10.82,16.244c-4.146,5.692-4.311,8.248-3.726,9.398c0.854,1.678,4.23,2.529,10.036,2.529c2.433,0,5.316-0.145,8.817-0.444
			L487.698,274.775z"/>
	</g>
</g>
</svg>
