<?xml version="1.0" encoding="utf-8"?>
<!-- Generator: Adobe Illustrator 15.1.0, SVG Export Plug-In . SVG Version: 6.00 Build 0)  -->
<!DOCTYPE svg PUBLIC "-//W3C//DTD SVG 1.1//EN" "http://www.w3.org/Graphics/SVG/1.1/DTD/svg11.dtd">
<svg version="1.1" id="Layer_1" xmlns="http://www.w3.org/2000/svg" xmlns:xlink="http://www.w3.org/1999/xlink" x="0px" y="0px"
	 width="500px" height="500px" viewBox="0 0 500 500" enable-background="new 0 0 500 500" xml:space="preserve">
<g id="Layer_2">
	<rect x="235.237" y="-28.07" transform="matrix(-0.0785 -0.9969 0.9969 -0.0785 213.2947 281.4578)" width="3" height="140.428"/>
	<rect x="165.63" y="442.646" transform="matrix(-0.9844 -0.1758 0.1758 -0.9844 391.6987 922.9933)" width="142.211" height="3"/>
	<polygon points="307.962,470.063 172.288,445.716 165.25,449.015 165.25,46.155 168.25,46.155 168.25,444.296 171.878,442.595 
		172.348,442.679 308.491,467.11 	"/>
	<rect x="306.757" y="37.836" transform="matrix(-0.9773 -0.2117 0.2117 -0.9773 624.7029 145.5565)" width="26.773" height="3"/>
	<path d="M305.25,477.487V34.813l29.5,6.123v416.516L305.25,477.487z M308.25,38.498v433.325l23.5-15.963V43.376L308.25,38.498z"/>
	<rect x="194.917" y="179.744" width="3" height="52.911"/>
	<rect x="250.241" y="-3.062" transform="matrix(-0.0869 -0.9962 0.9962 -0.0869 221.338 307.8305)" width="3" height="111.085"/>
	<rect x="165.984" y="50.983" transform="matrix(-0.9508 -0.3098 0.3098 -0.9508 337.9813 158.6357)" width="31.203" height="3"/>
	<rect x="235.232" y="39.623" transform="matrix(-0.0286 -0.9996 0.9996 -0.0286 133.9052 349.4282)" width="3" height="140.058"/>
	
		<rect x="166.712" y="241.31" transform="matrix(-0.9992 -0.0404 0.0404 -0.9992 463.5392 494.9875)" width="140.117" height="3.001"/>
	<rect x="166.602" y="306.819" transform="matrix(-0.9975 -0.0712 0.0712 -0.9975 451.0136 632.7131)" width="140.362" height="3"/>
	
		<rect x="166.277" y="374.012" transform="matrix(-0.9933 -0.1159 0.1159 -0.9933 428.392 775.9338)" width="140.956" height="3.001"/>
	
		<rect x="180.071" y="221.037" transform="matrix(-0.2396 -0.9709 0.9709 -0.2396 -4.3532 469.2244)" width="2.999" height="30.56"/>
	<rect x="196.375" y="232.969" transform="matrix(-0.9994 -0.0332 0.0332 -0.9994 495.2175 477.1585)" width="110.389" height="3"/>
	<rect x="194.917" y="241.189" width="3" height="53.466"/>
	<rect x="180.1" y="283.553" transform="matrix(-0.2804 -0.9599 0.9599 -0.2804 -54.5056 557.15)" width="2.999" height="30.908"/>
	
		<rect x="196.336" y="296.412" transform="matrix(-0.9983 -0.0588 0.0588 -0.9983 485.2468 610.1008)" width="110.528" height="2.998"/>
	<rect x="194.917" y="305.441" width="3" height="50.714"/>
	<rect x="180.057" y="345.895" transform="matrix(-0.352 -0.936 0.936 -0.352 -93.1222 659.0221)" width="3.002" height="31.701"/>
	
		<rect x="196.128" y="360.233" transform="matrix(-0.9949 -0.1007 0.1007 -0.9949 465.4454 746.9614)" width="110.895" height="3.001"/>
	<rect x="194.917" y="370.783" width="3" height="45.872"/>
	
		<rect x="180.053" y="406.796" transform="matrix(-0.3884 -0.9215 0.9215 -0.3884 -137.6061 754.4594)" width="2.999" height="32.193"/>
	<rect x="195.921" y="422.657" transform="matrix(-0.9909 -0.1347 0.1347 -0.9909 443.7686 878.3375)" width="111.35" height="3"/>
	<rect x="194.917" y="119.155" width="3" height="54"/>
	<rect x="166.283" y="113.907" transform="matrix(-0.9695 -0.2451 0.2451 -0.9695 329.3406 271.8003)" width="30.599" height="3"/>
	<rect x="250.066" y="63.054" transform="matrix(-0.0169 -0.9999 0.9999 -0.0169 137.611 371.7624)" width="3" height="110.354"/>
	<rect x="194.917" y="57.322" width="3" height="53.485"/>
	<rect x="166.714" y="179.198" transform="matrix(-0.9997 -0.0234 0.0234 -0.9997 469.1677 366.8851)" width="140.033" height="3"/>
	<rect x="180.089" y="160.981" transform="matrix(-0.1953 -0.9807 0.9807 -0.1953 44.3406 388.5898)" width="3" height="30.247"/>
	<rect x="196.388" y="172.66" transform="matrix(-0.9998 -0.0181 0.0181 -0.9998 500.2634 352.8468)" width="110.68" height="3"/>
	<rect x="170.583" y="432.667" width="3" height="11.488"/>
</g>
</svg>
