<?xml version="1.0" encoding="utf-8"?>
<!-- Generator: Adobe Illustrator 15.1.0, SVG Export Plug-In . SVG Version: 6.00 Build 0)  -->
<!DOCTYPE svg PUBLIC "-//W3C//DTD SVG 1.1//EN" "http://www.w3.org/Graphics/SVG/1.1/DTD/svg11.dtd">
<svg version="1.1" id="Layer_1" xmlns="http://www.w3.org/2000/svg" xmlns:xlink="http://www.w3.org/1999/xlink" x="0px" y="0px"
	 width="500px" height="500px" viewBox="0 0 500 500" enable-background="new 0 0 500 500" xml:space="preserve">
<g id="Layer_2">
	<rect x="63.346" y="210.339" transform="matrix(-0.9971 -0.0761 0.0761 -0.9971 413.1888 439.4229)" width="303.241" height="3"/>
	<rect x="63.416" y="221.191" transform="matrix(-0.9974 -0.0718 0.0718 -0.9974 413.4293 460.2438)" width="303.141" height="3"/>
	<rect x="364.662" y="223.354" width="3" height="221.646"/>
	<rect x="399.677" y="174.943" transform="matrix(-0.3125 -0.9499 0.9499 -0.3125 325.3483 659.0892)" width="3" height="73.737"/>
	<rect x="399.673" y="184.977" transform="matrix(-0.3164 -0.9486 0.9486 -0.3164 317.6195 672.669)" width="3" height="73.837"/>
	
		<rect x="157.083" y="358.377" transform="matrix(-0.9932 -0.1162 0.1162 -0.9932 470.9635 747.2113)" width="200.361" height="3.001"/>
	<rect x="69.986" y="212.375" width="3" height="192.054"/>
	<polygon points="366.533,446.519 355.263,446.007 355.263,232.925 358.263,232.925 358.263,443.14 365.791,443.481 
		434.701,403.564 434.701,201.693 157.852,183.01 65.299,201.521 65.299,403.074 71.255,403.681 156.253,367.563 156.253,239.285 
		159.253,239.285 159.253,369.547 71.718,406.743 62.299,405.783 62.299,199.062 157.654,179.99 157.854,180.003 437.701,198.889 
		437.701,405.293 	"/>
	<polygon points="356.645,256.451 138.316,239.259 138.316,217.298 141.316,217.298 141.316,236.486 356.881,253.46 	"/>
</g>
</svg>
