<?xml version="1.0" encoding="utf-8"?>
<!-- Generator: Adobe Illustrator 15.1.0, SVG Export Plug-In . SVG Version: 6.00 Build 0)  -->
<!DOCTYPE svg PUBLIC "-//W3C//DTD SVG 1.1//EN" "http://www.w3.org/Graphics/SVG/1.1/DTD/svg11.dtd">
<svg version="1.1" id="Layer_1" xmlns="http://www.w3.org/2000/svg" xmlns:xlink="http://www.w3.org/1999/xlink" x="0px" y="0px"
	 width="500px" height="500px" viewBox="150 50 500 500" enable-background="new 150 50 500 500" xml:space="preserve">
<g id="Layer_2">
	<path fill="none" stroke="#000000" stroke-width="3" stroke-linecap="round" stroke-miterlimit="10" d="M291.27,230.977"/>
	<path fill="none" stroke="#000000" stroke-width="3" stroke-linecap="round" stroke-miterlimit="10" d="M375.686,202.617"/>
	<rect x="309.184" y="290.5" width="3" height="18.2"/>
	<rect x="346.885" y="253.047" transform="matrix(0.0286 0.9996 -0.9996 0.0286 618.6501 -75.9129)" width="3" height="54.624"/>
	<path d="M291.269,232.477c-0.308,0-0.619-0.094-0.887-0.291c-0.667-0.49-0.812-1.429-0.322-2.097
		c4.339-5.913,64.008-26.594,91.737-28.967c0.833-0.064,1.552,0.542,1.623,1.367c0.07,0.826-0.542,1.552-1.367,1.623
		c-29.664,2.538-86.446,23.49-89.574,27.753C292.186,232.265,291.73,232.477,291.269,232.477z"/>
	<path d="M312.184,290.5h-3c0-5.988,5.338-10.86,11.9-10.86v3C316.176,282.64,312.184,286.166,312.184,290.5z"/>
	<path d="M315.884,315.92c-3.694,0-6.7-3.238-6.7-7.22h3c0,2.327,1.66,4.22,3.7,4.22V315.92z"/>
	<path d="M501.265,205.976c-23.074-14.175-70.875-14.942-118.946-1.911l-0.785-2.896c49.585-13.441,97.197-12.557,121.302,2.25
		L501.265,205.976z"/>
	<path d="M515.305,227.884l-2.938-0.612c1.629-7.814,1.872-12.312-11.171-21.341l1.707-2.467
		C517.16,213.333,517.1,219.273,515.305,227.884z"/>
	<path d="M449.615,375.549l-0.169-0.01l-149.775-16.979c-4.005-0.071-7.128-4.815-7.128-10.859l-2.077-53.964l-6.07-51.079
		c0-3.708,0-12.394,9.4-13.96c3.498-0.597,6.233-0.13,8.354,1.428c2.778,2.041,4.475,5.958,5.339,12.331l5.26,44.787l-2.979,0.35
		l-5.257-44.76c-0.744-5.485-2.06-8.763-4.139-10.29c-1.452-1.065-3.384-1.348-6.08-0.887c-5.718,0.953-6.888,4.881-6.899,10.914
		l6.066,50.992l2.08,54.082c0.001,4.689,2.225,7.918,4.221,7.918l0.169,0.01l149.764,16.978c1.685-0.016,1.972-0.515,1.972-1.967h3
		C454.668,373.831,452.921,375.549,449.615,375.549z"/>
	<path d="M454.668,370.607l-3-0.051l1.05-62.025l6.24-55.122c0.336-2.529,1.35-10.137-1.902-13.852
		c-1.35-1.541-3.302-2.291-5.968-2.291c-5.983,0-10.851,5.101-10.851,11.371l-0.015,0.211l-6.102,42.843l-1.817,28.802
		c0.003,2.934-3.625,5.306-8.257,5.306l-0.137-0.006l-108.163-9.881l0.272-2.988l108.093,9.875c3.173-0.02,5.193-1.429,5.193-2.4
		l1.836-29.072l6.095-42.799c0.057-7.874,6.248-14.262,13.851-14.262c3.532,0,6.299,1.115,8.225,3.314
		c3.719,4.247,3.277,11.276,2.623,16.195l-6.229,55.021L454.668,370.607z"/>
	<path d="M452.026,375.146l-1.102-2.791l42.52-16.794h0.285c0.452,0,1.815-2.05,1.815-5.78l1.377-46.999l6.606-49.547l0.048-0.139
		l8.84-26.001l2.84,0.966l-8.792,25.862l-6.558,49.179l-1.362,46.724c0.001,4.843-1.866,8.439-4.484,8.719L452.026,375.146z"/>
	<path d="M440.992,242.724c-0.313,0-0.629-0.097-0.898-0.299c-0.663-0.497-0.798-1.437-0.301-2.1
		c7.288-9.731,26.655-19.408,44.093-22.03c0.812-0.124,1.582,0.44,1.706,1.26c0.123,0.819-0.441,1.583-1.261,1.707
		c-16.475,2.478-35.378,11.836-42.138,20.862C441.899,242.516,441.448,242.724,440.992,242.724z"/>
	<path d="M388.377,280.483c-0.829,0-1.5-0.671-1.5-1.5c0-17.892-2.268-51.03-4.588-60.405c-0.199-0.804,0.292-1.618,1.096-1.816
		c0.808-0.198,1.618,0.292,1.816,1.096c2.408,9.734,4.676,42.688,4.676,61.126C389.877,279.812,389.206,280.483,388.377,280.483z"/>
	<path d="M434.11,282.64c-0.051,0-0.101-0.002-0.152-0.007c-18.113-1.82-47.433-2.9-58.086-1.565
		c-0.823,0.102-1.572-0.479-1.675-1.302c-0.103-0.822,0.48-1.572,1.302-1.675c10.842-1.359,40.489-0.278,58.76,1.556
		c0.824,0.083,1.425,0.818,1.342,1.643C435.523,282.063,434.871,282.64,434.11,282.64z"/>
	<path d="M395.99,375.251h-1.324c-3.684,0-5.365,0-7.076-1.056l-0.544-0.335l-1.418-6.583c-0.174-0.81,0.341-1.607,1.15-1.782
		c0.813-0.17,1.608,0.341,1.782,1.151l1.132,5.255c0.733,0.273,1.726,0.334,3.649,0.347l0.566-4.53
		c0.102-0.822,0.848-1.408,1.674-1.303c0.822,0.103,1.405,0.852,1.302,1.674L395.99,375.251z"/>
	<path d="M446.545,409.84c-2.382,0-4.17-0.625-4.282-0.665l-0.903-0.322l-3.206-35.8c-0.074-0.825,0.535-1.554,1.36-1.628
		c0.83-0.073,1.554,0.535,1.628,1.36l3.026,33.8c0.999,0.211,2.711,0.435,4.489,0.024l3.434-33.842
		c0.084-0.824,0.816-1.429,1.644-1.341c0.824,0.083,1.425,0.819,1.341,1.644l-3.631,35.786l-0.892,0.318
		C449.158,409.674,447.772,409.84,446.545,409.84z"/>
	<path d="M477.401,384.726c-2.279,0-3.789-0.463-3.882-0.492l-1.013-0.317l-0.663-18.749c-0.029-0.827,0.618-1.522,1.446-1.552
		c0.823-0.042,1.522,0.618,1.552,1.446l0.585,16.518c0.917,0.139,2.396,0.251,4.154-0.025l1.58-20.235
		c0.064-0.826,0.777-1.451,1.612-1.378c0.825,0.064,1.442,0.786,1.378,1.612l-1.753,22.455l-1.062,0.254
		C479.886,384.608,478.547,384.726,477.401,384.726z"/>
	<path d="M310.278,391.669c-2.001,0-3.505-0.367-3.599-0.391l-1-0.25l-4.067-33.406l2.978-0.363l3.809,31.283
		c0.844,0.111,2.129,0.208,3.486,0.023l2.505-29.803l2.989,0.252l-2.69,32.004l-1.041,0.26
		C312.476,391.571,311.311,391.669,310.278,391.669z"/>
</g>
</svg>
