<?xml version="1.0" encoding="utf-8"?>
<!-- Generator: Adobe Illustrator 15.1.0, SVG Export Plug-In . SVG Version: 6.00 Build 0)  -->
<!DOCTYPE svg PUBLIC "-//W3C//DTD SVG 1.1//EN" "http://www.w3.org/Graphics/SVG/1.1/DTD/svg11.dtd">
<svg version="1.1" id="Layer_1" xmlns="http://www.w3.org/2000/svg" xmlns:xlink="http://www.w3.org/1999/xlink" x="0px" y="0px"
	 width="500px" height="500px" viewBox="150 50 500 500" enable-background="new 150 50 500 500" xml:space="preserve">
<g id="Layer_2">
	<rect x="213.36" y="247.322" transform="matrix(0.9971 0.0761 -0.0761 0.9971 19.9799 -27.0362)" width="303.241" height="3"/>
	<rect x="213.407" y="258.212" transform="matrix(0.9974 0.0718 -0.0718 0.9974 19.6028 -25.5517)" width="303.147" height="3"/>
	<rect x="514.662" y="260.353" width="3" height="221.647"/>
	<rect x="549.682" y="211.953" transform="matrix(0.3125 0.9499 -0.9499 0.3125 615.2886 -352.5132)" width="3" height="73.738"/>
	<rect x="549.682" y="221.992" transform="matrix(0.3164 0.9486 -0.9486 0.3164 622.3828 -345.8752)" width="3" height="73.839"/>
	<rect x="307.074" y="395.4" transform="matrix(0.9932 0.1162 -0.1162 0.9932 48.895 -44.648)" width="200.367" height="3.001"/>
	<rect x="219.986" y="249.375" width="3" height="192.054"/>
	<polygon points="516.533,483.519 505.263,483.007 505.263,269.925 508.263,269.925 508.263,480.14 515.791,480.481 
		584.701,440.564 584.701,238.693 307.852,220.01 215.299,238.521 215.299,440.074 221.255,440.681 306.253,404.563 
		306.253,276.285 309.253,276.285 309.253,406.547 221.718,443.743 212.299,442.783 212.299,236.062 307.655,216.99 
		307.854,217.003 587.701,235.889 587.701,442.293 	"/>
	<polygon points="506.645,293.451 288.317,276.259 288.317,254.298 291.317,254.298 291.317,273.486 506.881,290.46 	"/>
</g>
</svg>
