<?xml version="1.0" encoding="utf-8"?>
<!-- Generator: Adobe Illustrator 15.1.0, SVG Export Plug-In . SVG Version: 6.00 Build 0)  -->
<!DOCTYPE svg PUBLIC "-//W3C//DTD SVG 1.0//EN" "http://www.w3.org/TR/2001/REC-SVG-20010904/DTD/svg10.dtd">
<svg version="1.0" id="Layer_1" xmlns="http://www.w3.org/2000/svg" xmlns:xlink="http://www.w3.org/1999/xlink" x="0px" y="0px"
	 width="150px" height="150px" viewBox="75 75 150 150" enable-background="new 75 75 150 150" xml:space="preserve">
<g id="Layer_1_1_" display="none">
	<g display="inline">
		<path d="M78.361,245.453c-0.624,0-1.248-0.193-1.775-0.583c-1.015-0.744-1.458-2.045-1.106-3.255l12.454-42.87
			c0.1-0.34,0.259-0.662,0.472-0.949L193.7,55.759c0.608-0.819,1.592-1.261,2.606-1.207l18.625,1.228
			c1.147,0.076,2.149,0.801,2.584,1.866l6.904,17.013c0.396,0.979,0.249,2.092-0.384,2.933l-107.91,143.162
			c-0.204,0.271-0.453,0.507-0.735,0.694l-35.372,23.505C79.518,245.286,78.939,245.453,78.361,245.453z M93.545,200.938
			l-10.017,34.479l28.116-18.684L218.223,75.338l-5.562-13.693l-15.115-0.996L93.545,200.938z"/>
		<path d="M104.407,211.296c-0.618,0-1.242-0.19-1.778-0.586c-1.333-0.983-1.616-2.862-0.633-4.194L212.327,56.992
			c0.983-1.33,2.858-1.617,4.194-0.633c1.334,0.984,1.617,2.862,0.633,4.195l-110.33,149.523
			C106.235,210.874,105.327,211.296,104.407,211.296z"/>
		<path d="M113.734,221.948c-0.835,0-1.666-0.347-2.259-1.025l-20.134-23.004c-1.091-1.245-0.965-3.142,0.281-4.233
			c1.247-1.09,3.141-0.967,4.233,0.285l20.134,23.004c1.091,1.244,0.965,3.141-0.281,4.232
			C115.139,221.705,114.436,221.948,113.734,221.948z"/>
	</g>
</g>
<g id="Layer_2" display="none">
	<g display="inline">
		<path d="M63.959,249.537l-1.143-5.889c0.003-0.002,0.006-0.002,0.009-0.004c7.528-1.468,10.138-13.213,10.084-22.826l-0.001-0.186
			l0.022-0.183c2.063-17.449,13.173-19.604,27.24-22.335l1.143,5.891c-13.835,2.686-20.813,4.04-22.403,16.971
			c0.018,6.887-1.175,14.248-4.122,19.81c15.957-4.615,25.08-10.878,28.46-15.788l0.287-0.354c1.329-1.412,5.474-7.006,2.999-19.736
			l5.889-1.145c2.874,14.771-1.958,22.18-4.359,24.821C101.719,237.579,85.263,245.402,63.959,249.537L63.959,249.537z"/>
		<path d="M107.099,207.568c-4.749,0-8.599-2.322-9.302-5.933l5.889-1.147c0.088,0.443,2.137,1.498,5.219,0.902l1.146,5.889
			C109.043,207.477,108.053,207.568,107.099,207.568z"/>
		<path d="M111.217,206.779l-3.478-4.891c42.409-30.146,97.27-102.484,121.886-141c1.251-2.229,1.552-3.699,1.566-4.389
			c-0.7,0.133-2.205,0.715-4.287,2.634C179.521,99.298,119.43,171.473,103.406,202.439l-5.329-2.756
			c16.27-31.443,77.08-104.551,124.856-145.044c4.504-4.153,9.192-5.326,12.146-2.991c1.377,1.091,4.104,4.475-0.312,12.328
			C208.835,104.562,154.623,175.925,111.217,206.779z"/>
	</g>
</g>
<g id="Layer_3" display="none">
	<g display="inline">
		<path d="M79.383,237.688c-0.768,0-1.535-0.293-2.121-0.879l-20.889-20.883c-0.563-0.563-0.879-1.326-0.879-2.121
			c0-0.796,0.316-1.559,0.879-2.121l114.24-114.22c1.172-1.172,3.07-1.172,4.242,0s1.172,3.072,0,4.242L62.736,213.805
			l16.646,16.641l113.335-113.337c1.172-1.172,3.07-1.172,4.242,0s1.172,3.07,0,4.242L81.504,236.809
			C80.918,237.395,80.15,237.688,79.383,237.688z"/>
		<path d="M220.641,140.653c-0.721,0-1.44-0.258-2.016-0.778l-78.609-71.256c-0.847-0.766-1.184-1.948-0.87-3.047
			c0.316-1.097,1.225-1.922,2.35-2.127c4.131-0.751,8.373-1.132,12.605-1.132c49.488,0,88.176,50.489,89.799,52.638
			c0.901,1.194,0.785,2.87-0.271,3.927l-20.864,20.895C222.18,140.358,221.411,140.653,220.641,140.653z M148.849,68.527
			l71.689,64.983l16.948-16.972c-7.764-9.398-42.328-48.226-83.385-48.226C152.348,68.313,150.592,68.385,148.849,68.527z"/>
	</g>
</g>
<g id="Layer_4">
	<g>
		<path d="M134.264,196.459c-0.779,0-1.437-0.603-1.494-1.392l-5.321-73.331c-0.06-0.826,0.562-1.544,1.387-1.604
			c0.822-0.056,1.544,0.561,1.604,1.387l5.32,73.331c0.061,0.826-0.561,1.544-1.387,1.604
			C134.337,196.457,134.301,196.459,134.264,196.459z"/>
		<path d="M128.945,123.128c-0.829,0-1.5-0.671-1.5-1.5c0-15.17,10.908-16.626,22.456-18.167c0.818-0.12,1.645,0.457,1.755,1.279
			c0.109,0.82-0.398,1.566-1.221,1.676c-11.663,1.558-19.99,2.669-19.99,15.213C130.445,122.458,129.774,123.128,128.945,123.128z"
			/>
		<path fill="none" stroke="#000000" stroke-width="2" stroke-linecap="round" stroke-linejoin="round" d="M145.882,192.054"/>
		<path fill="none" stroke="#000000" stroke-width="2" stroke-linecap="round" stroke-linejoin="round" d="M134.266,194.959"/>
		<path fill="none" stroke="#000000" stroke-width="2" stroke-linecap="round" stroke-linejoin="round" d="M140.562,135.911"/>
		<path fill="none" stroke="#000000" stroke-width="2" stroke-linecap="round" stroke-linejoin="round" d="M144.43,193.995"/>
		<path d="M150.236,106.429c-0.766,0-1.421-0.584-1.492-1.363c-0.076-0.824,0.531-1.555,1.356-1.632l13.072-1.208
			c0.835-0.088,1.556,0.533,1.632,1.356c0.076,0.824-0.531,1.555-1.356,1.632l-13.072,1.208
			C150.329,106.428,150.282,106.429,150.236,106.429z"/>
		<path d="M164.822,116.837c-4.262,0-7.731-3.278-7.731-7.308s3.47-7.308,7.731-7.308c4.264,0,7.732,3.278,7.732,7.308
			S169.086,116.837,164.822,116.837z M164.822,105.221c-2.609,0-4.731,1.932-4.731,4.308s2.122,4.308,4.731,4.308
			c2.611,0,4.732-1.932,4.732-4.308S167.433,105.221,164.822,105.221z"/>
		<path d="M145.88,193.554c-0.776,0-1.434-0.599-1.494-1.386l-5.32-69.456c-0.063-0.826,0.555-1.547,1.382-1.609
			c0.82-0.063,1.547,0.556,1.609,1.381l5.321,69.456c0.063,0.826-0.555,1.547-1.381,1.61
			C145.958,193.553,145.918,193.554,145.88,193.554z"/>
		<path d="M150.236,118.045c-0.766,0-1.421-0.584-1.492-1.362c-0.076-0.824,0.531-1.556,1.356-1.632l13.072-1.208
			c0.835-0.082,1.556,0.532,1.632,1.356c0.077,0.825-0.531,1.555-1.356,1.632l-13.072,1.208
			C150.329,118.044,150.282,118.045,150.236,118.045z"/>
		<path d="M140.562,124.098c-0.829,0-1.5-0.671-1.5-1.5c0-6.376,4.559-6.829,8.222-7.194c0.886-0.088,1.803-0.179,2.696-0.337
			c0.816-0.136,1.592,0.403,1.737,1.219c0.143,0.816-0.402,1.594-1.218,1.737c-1.002,0.176-1.976,0.272-2.917,0.366
			c-4.102,0.407-5.52,0.725-5.52,4.208C142.062,123.427,141.391,124.098,140.562,124.098z"/>
		<path d="M139.376,197.781c-2.614,0-5.016-0.908-5.985-1.604c-0.673-0.482-0.828-1.42-0.344-2.094
			c0.482-0.672,1.417-0.829,2.093-0.344c0.702,0.505,3.651,1.511,6.128,0.791c1.522-0.443,2.576-1.436,3.223-3.038
			c0.311-0.77,1.19-1.136,1.952-0.831c0.769,0.311,1.14,1.186,0.831,1.953c-0.986,2.441-2.773,4.102-5.169,4.797
			C141.203,197.673,140.277,197.781,139.376,197.781z"/>
	</g>
</g>
</svg>
