<?xml version="1.0" encoding="utf-8"?>
<!-- Generator: Adobe Illustrator 15.1.0, SVG Export Plug-In . SVG Version: 6.00 Build 0)  -->
<!DOCTYPE svg PUBLIC "-//W3C//DTD SVG 1.0//EN" "http://www.w3.org/TR/2001/REC-SVG-20010904/DTD/svg10.dtd">
<svg version="1.0" id="Layer_1" xmlns="http://www.w3.org/2000/svg" xmlns:xlink="http://www.w3.org/1999/xlink" x="0px" y="0px"
	 width="150px" height="150px" viewBox="75 75 150 150" enable-background="new 75 75 150 150" xml:space="preserve">
<g id="Layer_1_1_" display="none">
	<g display="inline">
		<path d="M78.361,245.453c-0.624,0-1.248-0.193-1.775-0.583c-1.015-0.744-1.458-2.045-1.106-3.255l12.454-42.87
			c0.1-0.34,0.259-0.662,0.472-0.949L193.7,55.759c0.608-0.819,1.592-1.261,2.606-1.207l18.625,1.228
			c1.147,0.076,2.149,0.801,2.584,1.866l6.904,17.013c0.396,0.979,0.249,2.092-0.384,2.933l-107.91,143.162
			c-0.204,0.271-0.453,0.507-0.735,0.694l-35.372,23.505C79.518,245.286,78.939,245.453,78.361,245.453z M93.545,200.938
			l-10.017,34.479l28.116-18.684L218.223,75.338l-5.562-13.693l-15.115-0.996L93.545,200.938z"/>
		<path d="M104.407,211.296c-0.618,0-1.242-0.19-1.778-0.586c-1.333-0.983-1.616-2.862-0.633-4.194L212.327,56.992
			c0.983-1.33,2.858-1.617,4.194-0.633c1.334,0.984,1.617,2.862,0.633,4.195l-110.33,149.523
			C106.235,210.874,105.327,211.296,104.407,211.296z"/>
		<path d="M113.734,221.948c-0.835,0-1.666-0.347-2.259-1.025l-20.134-23.004c-1.091-1.245-0.965-3.142,0.281-4.233
			c1.247-1.09,3.141-0.967,4.233,0.285l20.134,23.004c1.091,1.244,0.965,3.141-0.281,4.232
			C115.139,221.705,114.436,221.948,113.734,221.948z"/>
	</g>
</g>
<g id="Layer_2">
	<g>
		<path d="M106.979,199.769l-0.572-2.944c0.002-0.001,0.003-0.001,0.005-0.002c3.764-0.734,5.069-6.606,5.042-11.413l0-0.093
			l0.011-0.092c1.031-8.725,6.586-9.802,13.62-11.167l0.572,2.945c-6.918,1.343-10.407,2.02-11.202,8.485
			c0.009,3.443-0.587,7.124-2.061,9.904c7.979-2.308,12.54-5.438,14.23-7.894l0.144-0.177c0.665-0.706,2.737-3.503,1.5-9.868
			l2.944-0.572c1.437,7.386-0.979,11.09-2.18,12.41C125.859,193.789,117.631,197.701,106.979,199.769L106.979,199.769z"/>
		<path d="M128.549,178.784c-2.374,0-4.299-1.161-4.651-2.967l2.945-0.573c0.044,0.222,1.068,0.749,2.609,0.451l0.573,2.944
			C129.521,178.738,129.026,178.784,128.549,178.784z"/>
		<path d="M130.608,178.39l-1.739-2.445c21.204-15.073,48.635-51.242,60.943-70.5c0.625-1.114,0.775-1.85,0.783-2.194
			c-0.351,0.066-1.104,0.357-2.145,1.316c-23.691,20.082-53.736,56.17-61.749,71.653l-2.664-1.378
			c8.135-15.722,38.54-52.275,62.429-72.522c2.252-2.077,4.596-2.663,6.072-1.496c0.688,0.545,2.053,2.238-0.156,6.164
			C179.417,127.281,152.311,162.962,130.608,178.39z"/>
	</g>
</g>
<g id="Layer_3" display="none">
	<path display="inline" d="M166.75,167.915c-0.768,0-1.535-0.293-2.121-0.879l-20.889-20.883c-0.563-0.563-0.879-1.326-0.879-2.121
		c0-0.795,0.316-1.559,0.879-2.121l114.24-114.22c1.172-1.172,3.069-1.172,4.242,0c1.172,1.172,1.172,3.072,0,4.242L150.104,144.032
		l16.646,16.641L280.085,47.335c1.172-1.172,3.069-1.172,4.242,0c1.172,1.172,1.172,3.07,0,4.242L168.871,167.036
		C168.285,167.622,167.518,167.915,166.75,167.915z"/>
	<path display="inline" d="M308.008,70.881c-0.721,0-1.44-0.258-2.016-0.778L227.383-1.153c-0.847-0.766-1.184-1.948-0.869-3.047
		c0.315-1.097,1.225-1.922,2.35-2.127c4.131-0.751,8.373-1.132,12.605-1.132c49.488,0,88.175,50.489,89.798,52.638
		c0.902,1.194,0.785,2.87-0.27,3.927L310.132,70C309.546,70.586,308.778,70.881,308.008,70.881z M236.216-1.245l71.689,64.983
		l16.947-16.972c-7.764-9.398-42.327-48.226-83.385-48.226C239.714-1.459,237.959-1.387,236.216-1.245z"/>
	<g display="inline">
		<path d="M221.602,342.186c-1.559,0-2.873-1.205-2.988-2.783l-10.641-146.66c-0.119-1.652,1.123-3.088,2.774-3.208
			c1.644-0.111,3.088,1.122,3.208,2.774l10.641,146.659c0.12,1.652-1.121,3.089-2.773,3.208
			C221.748,342.182,221.675,342.186,221.602,342.186z"/>
		<path d="M210.964,195.523c-1.657,0-3-1.342-3-3c0-30.34,21.817-33.252,44.912-36.334c1.636-0.239,3.29,0.914,3.511,2.559
			c0.219,1.641-0.798,3.132-2.441,3.352c-23.325,3.114-39.98,5.338-39.98,30.426C213.964,194.184,212.622,195.523,210.964,195.523z"
			/>
		<path fill="none" stroke="#000000" stroke-width="2" stroke-linecap="round" stroke-linejoin="round" d="M244.837,333.375"/>
		<path fill="none" stroke="#000000" stroke-width="2" stroke-linecap="round" stroke-linejoin="round" d="M221.604,339.186"/>
		<path fill="none" stroke="#000000" stroke-width="2" stroke-linecap="round" stroke-linejoin="round" d="M234.195,221.089"/>
		<path fill="none" stroke="#000000" stroke-width="2" stroke-linecap="round" stroke-linejoin="round" d="M241.934,337.257"/>
		<path d="M253.547,162.126c-1.531,0-2.842-1.169-2.984-2.726c-0.152-1.648,1.063-3.11,2.713-3.264l26.145-2.417
			c1.67-0.176,3.111,1.066,3.264,2.714c0.152,1.648-1.063,3.11-2.713,3.264l-26.145,2.417
			C253.73,162.123,253.639,162.126,253.547,162.126z"/>
		<path d="M282.718,182.941c-8.524,0-15.463-6.558-15.463-14.616c0-8.06,6.938-14.616,15.463-14.616
			c8.528,0,15.466,6.557,15.466,14.616C298.184,176.384,291.246,182.941,282.718,182.941z M282.718,159.709
			c-5.218,0-9.463,3.864-9.463,8.616s4.245,8.616,9.463,8.616c5.222,0,9.466-3.864,9.466-8.616S287.938,159.709,282.718,159.709z"/>
		<path d="M244.834,336.375c-1.553,0-2.868-1.198-2.988-2.771l-10.641-138.91c-0.126-1.652,1.109-3.094,2.763-3.221
			c1.642-0.125,3.095,1.113,3.22,2.764l10.642,138.91c0.126,1.652-1.11,3.095-2.763,3.221
			C244.988,336.372,244.91,336.375,244.834,336.375z"/>
		<path d="M253.547,185.357c-1.531,0-2.842-1.168-2.984-2.725c-0.152-1.648,1.063-3.111,2.713-3.264l26.145-2.417
			c1.67-0.164,3.111,1.063,3.264,2.713c0.153,1.649-1.063,3.11-2.713,3.265l-26.145,2.416
			C253.73,185.355,253.639,185.357,253.547,185.357z"/>
		<path d="M234.195,197.464c-1.657,0-3-1.342-3-3c0-12.753,9.117-13.657,16.445-14.388c1.771-0.176,3.605-0.357,5.391-0.674
			c1.632-0.272,3.185,0.806,3.475,2.438c0.284,1.633-0.806,3.188-2.438,3.475c-2.004,0.353-3.952,0.545-5.834,0.732
			c-8.202,0.814-11.039,1.45-11.039,8.417C237.195,196.122,235.854,197.464,234.195,197.464z"/>
		<path d="M231.826,344.83c-5.229,0-10.031-1.816-11.971-3.208c-1.346-0.964-1.655-2.839-0.688-4.187
			c0.964-1.346,2.833-1.658,4.187-0.688c1.403,1.011,7.301,3.022,12.256,1.582c3.043-0.886,5.152-2.871,6.445-6.076
			c0.62-1.538,2.381-2.271,3.904-1.661c1.538,0.621,2.279,2.37,1.661,3.905c-1.972,4.884-5.546,8.203-10.339,9.595
			C235.479,344.613,233.628,344.83,231.826,344.83z"/>
	</g>
</g>
<g id="Layer_4" display="none">
</g>
</svg>
