<?xml version="1.0" encoding="utf-8"?>
<!-- Generator: Adobe Illustrator 15.1.0, SVG Export Plug-In . SVG Version: 6.00 Build 0)  -->
<!DOCTYPE svg PUBLIC "-//W3C//DTD SVG 1.0//EN" "http://www.w3.org/TR/2001/REC-SVG-20010904/DTD/svg10.dtd">
<svg version="1.0" id="Layer_1" xmlns="http://www.w3.org/2000/svg" xmlns:xlink="http://www.w3.org/1999/xlink" x="0px" y="0px"
	 width="150px" height="150px" viewBox="75 75 150 150" enable-background="new 75 75 150 150" xml:space="preserve">
<g id="Layer_1_1_" display="none">
	<g display="inline">
		<path d="M78.361,245.453c-0.624,0-1.248-0.193-1.775-0.583c-1.015-0.744-1.458-2.045-1.106-3.255l12.454-42.87
			c0.1-0.34,0.259-0.662,0.472-0.949L193.7,55.759c0.608-0.819,1.592-1.261,2.606-1.207l18.625,1.228
			c1.147,0.076,2.149,0.801,2.584,1.866l6.904,17.013c0.396,0.979,0.249,2.092-0.384,2.933l-107.91,143.162
			c-0.204,0.271-0.453,0.507-0.735,0.694l-35.372,23.505C79.518,245.286,78.939,245.453,78.361,245.453z M93.545,200.938
			l-10.017,34.479l28.116-18.684L218.223,75.338l-5.562-13.693l-15.115-0.996L93.545,200.938z"/>
		<path d="M104.407,211.296c-0.618,0-1.242-0.19-1.778-0.586c-1.333-0.983-1.616-2.862-0.633-4.194L212.327,56.992
			c0.983-1.33,2.858-1.617,4.194-0.633c1.334,0.984,1.617,2.862,0.633,4.195l-110.33,149.523
			C106.235,210.874,105.327,211.296,104.407,211.296z"/>
		<path d="M113.734,221.948c-0.835,0-1.666-0.347-2.259-1.025l-20.134-23.004c-1.091-1.245-0.965-3.142,0.281-4.233
			c1.247-1.09,3.141-0.967,4.233,0.285l20.134,23.004c1.091,1.244,0.965,3.141-0.281,4.232
			C115.139,221.705,114.436,221.948,113.734,221.948z"/>
	</g>
</g>
<g id="Layer_2" display="none">
	<g display="inline">
		<path d="M63.959,249.537l-1.143-5.889c0.003-0.002,0.006-0.002,0.009-0.004c7.528-1.468,10.138-13.213,10.084-22.826l-0.001-0.186
			l0.022-0.183c2.063-17.449,13.173-19.604,27.24-22.335l1.143,5.891c-13.835,2.686-20.813,4.04-22.403,16.971
			c0.018,6.887-1.175,14.248-4.122,19.81c15.957-4.615,25.08-10.878,28.46-15.788l0.287-0.354c1.329-1.412,5.474-7.006,2.999-19.736
			l5.889-1.145c2.874,14.771-1.958,22.18-4.359,24.821C101.719,237.579,85.263,245.402,63.959,249.537L63.959,249.537z"/>
		<path d="M107.099,207.568c-4.749,0-8.599-2.322-9.302-5.933l5.889-1.147c0.088,0.443,2.137,1.498,5.219,0.902l1.146,5.889
			C109.043,207.477,108.053,207.568,107.099,207.568z"/>
		<path d="M111.217,206.779l-3.478-4.891c42.409-30.146,97.27-102.484,121.886-141c1.251-2.229,1.552-3.699,1.566-4.389
			c-0.7,0.133-2.205,0.715-4.287,2.634C179.521,99.298,119.43,171.473,103.406,202.439l-5.329-2.756
			c16.27-31.443,77.08-104.551,124.856-145.044c4.504-4.153,9.192-5.326,12.146-2.991c1.377,1.091,4.104,4.475-0.312,12.328
			C208.835,104.562,154.623,175.925,111.217,206.779z"/>
	</g>
</g>
<g id="Layer_3">
	<g>
		<path d="M114.691,193.844c-0.384,0-0.768-0.146-1.061-0.439l-10.444-10.441c-0.281-0.281-0.439-0.663-0.439-1.061
			c0-0.398,0.158-0.779,0.439-1.061l57.12-57.11c0.586-0.586,1.535-0.586,2.121,0s0.586,1.536,0,2.121l-56.06,56.049l8.323,8.32
			l56.667-56.669c0.586-0.586,1.535-0.586,2.121,0s0.586,1.535,0,2.121l-57.728,57.729
			C115.459,193.697,115.075,193.844,114.691,193.844z"/>
		<path d="M185.32,145.326c-0.36,0-0.721-0.129-1.008-0.389l-39.305-35.628c-0.423-0.383-0.592-0.974-0.435-1.523
			c0.158-0.549,0.612-0.961,1.175-1.063c2.065-0.376,4.187-0.566,6.303-0.566c24.744,0,44.088,25.245,44.899,26.319
			c0.45,0.597,0.393,1.435-0.136,1.963l-10.432,10.448C186.09,145.179,185.705,145.326,185.32,145.326z M149.425,109.264
			l35.845,32.491l8.474-8.486c-3.882-4.699-21.164-24.113-41.692-24.113C151.174,109.156,150.296,109.192,149.425,109.264z"/>
	</g>
</g>
<g id="Layer_4" display="none">
	<g display="inline">
		<path d="M221.602,342.186c-1.559,0-2.873-1.205-2.988-2.783l-10.641-146.66c-0.119-1.652,1.123-3.088,2.774-3.208
			c1.644-0.111,3.088,1.122,3.208,2.774l10.641,146.659c0.12,1.652-1.121,3.089-2.773,3.208
			C221.748,342.182,221.675,342.186,221.602,342.186z"/>
		<path d="M210.964,195.523c-1.657,0-3-1.342-3-3c0-30.34,21.817-33.252,44.912-36.334c1.636-0.239,3.29,0.914,3.511,2.559
			c0.219,1.641-0.798,3.132-2.441,3.352c-23.325,3.114-39.98,5.338-39.98,30.426C213.964,194.184,212.622,195.523,210.964,195.523z"
			/>
		<path fill="none" stroke="#000000" stroke-width="2" stroke-linecap="round" stroke-linejoin="round" d="M244.837,333.375"/>
		<path fill="none" stroke="#000000" stroke-width="2" stroke-linecap="round" stroke-linejoin="round" d="M221.604,339.186"/>
		<path fill="none" stroke="#000000" stroke-width="2" stroke-linecap="round" stroke-linejoin="round" d="M234.195,221.089"/>
		<path fill="none" stroke="#000000" stroke-width="2" stroke-linecap="round" stroke-linejoin="round" d="M241.934,337.257"/>
		<path d="M253.547,162.126c-1.531,0-2.842-1.169-2.984-2.726c-0.152-1.648,1.063-3.11,2.713-3.264l26.145-2.417
			c1.67-0.176,3.111,1.066,3.264,2.714c0.152,1.648-1.063,3.11-2.713,3.264l-26.145,2.417
			C253.73,162.123,253.639,162.126,253.547,162.126z"/>
		<path d="M282.718,182.941c-8.524,0-15.463-6.558-15.463-14.616c0-8.06,6.938-14.616,15.463-14.616
			c8.528,0,15.466,6.557,15.466,14.616C298.184,176.384,291.246,182.941,282.718,182.941z M282.718,159.709
			c-5.218,0-9.463,3.864-9.463,8.616s4.245,8.616,9.463,8.616c5.222,0,9.466-3.864,9.466-8.616S287.938,159.709,282.718,159.709z"/>
		<path d="M244.834,336.375c-1.553,0-2.868-1.198-2.988-2.771l-10.641-138.91c-0.126-1.652,1.109-3.094,2.763-3.221
			c1.642-0.125,3.095,1.113,3.22,2.764l10.642,138.91c0.126,1.652-1.11,3.095-2.763,3.221
			C244.988,336.372,244.91,336.375,244.834,336.375z"/>
		<path d="M253.547,185.357c-1.531,0-2.842-1.168-2.984-2.725c-0.152-1.648,1.063-3.111,2.713-3.264l26.145-2.417
			c1.67-0.164,3.111,1.063,3.264,2.713c0.153,1.649-1.063,3.11-2.713,3.265l-26.145,2.416
			C253.73,185.355,253.639,185.357,253.547,185.357z"/>
		<path d="M234.195,197.464c-1.657,0-3-1.342-3-3c0-12.753,9.117-13.657,16.445-14.388c1.771-0.176,3.605-0.357,5.391-0.674
			c1.632-0.272,3.185,0.806,3.475,2.438c0.284,1.633-0.806,3.188-2.438,3.475c-2.004,0.353-3.952,0.545-5.834,0.732
			c-8.202,0.814-11.039,1.45-11.039,8.417C237.195,196.122,235.854,197.464,234.195,197.464z"/>
		<path d="M231.826,344.83c-5.229,0-10.031-1.816-11.971-3.208c-1.346-0.964-1.655-2.839-0.688-4.187
			c0.964-1.346,2.833-1.658,4.187-0.688c1.403,1.011,7.301,3.022,12.256,1.582c3.043-0.886,5.152-2.871,6.445-6.076
			c0.62-1.538,2.381-2.271,3.904-1.661c1.538,0.621,2.279,2.37,1.661,3.905c-1.972,4.884-5.546,8.203-10.339,9.595
			C235.479,344.613,233.628,344.83,231.826,344.83z"/>
	</g>
</g>
</svg>
