<?xml version="1.0" encoding="utf-8"?>
<!-- Generator: Adobe Illustrator 15.1.0, SVG Export Plug-In . SVG Version: 6.00 Build 0)  -->
<!DOCTYPE svg PUBLIC "-//W3C//DTD SVG 1.0//EN" "http://www.w3.org/TR/2001/REC-SVG-20010904/DTD/svg10.dtd">
<svg version="1.0" id="Layer_1" xmlns="http://www.w3.org/2000/svg" xmlns:xlink="http://www.w3.org/1999/xlink" x="0px" y="0px"
	 width="150px" height="150px" viewBox="75 75 150 150" enable-background="new 75 75 150 150" xml:space="preserve">
<g id="Layer_1_1_">
	<g>
		<path d="M114.181,197.727c-0.313,0-0.624-0.097-0.888-0.291c-0.508-0.373-0.729-1.023-0.553-1.628l6.227-21.435
			c0.05-0.17,0.13-0.332,0.236-0.475l52.646-71.019c0.305-0.41,0.797-0.63,1.304-0.604l9.313,0.614
			c0.573,0.038,1.075,0.401,1.292,0.934l3.452,8.506c0.198,0.49,0.124,1.046-0.192,1.466l-53.955,71.581
			c-0.102,0.136-0.227,0.254-0.368,0.348l-17.686,11.752C114.759,197.643,114.47,197.727,114.181,197.727z M121.772,175.469
			l-5.009,17.239l14.059-9.342l53.289-70.697l-2.781-6.847l-7.557-0.498L121.772,175.469z"/>
		<path d="M127.204,180.648c-0.309,0-0.621-0.096-0.889-0.293c-0.667-0.492-0.808-1.432-0.316-2.098l55.166-74.762
			c0.491-0.665,1.429-0.809,2.097-0.316c0.667,0.492,0.809,1.431,0.316,2.098l-55.165,74.762
			C128.117,180.438,127.664,180.648,127.204,180.648z"/>
		<path d="M131.867,185.975c-0.418,0-0.833-0.174-1.13-0.514l-10.067-11.502c-0.545-0.622-0.482-1.57,0.141-2.116
			c0.624-0.545,1.571-0.483,2.117,0.143l10.066,11.502c0.546,0.622,0.483,1.57-0.14,2.116
			C132.569,185.853,132.218,185.975,131.867,185.975z"/>
	</g>
</g>
<g id="Layer_2" display="none">
	<path display="inline" d="M12.566,217.398l-1.143-5.889c0.003-0.001,0.006-0.001,0.009-0.003
		c7.528-1.468,10.138-13.213,10.084-22.825l-0.001-0.187l0.022-0.183c2.063-17.449,13.173-19.604,27.24-22.336l1.143,5.892
		c-13.835,2.687-20.813,4.04-22.403,16.971c0.018,6.888-1.175,14.248-4.122,19.81c15.957-4.615,25.08-10.879,28.46-15.789
		l0.287-0.354c1.329-1.412,5.474-7.006,2.999-19.736l5.889-1.145c2.874,14.771-1.958,22.18-4.359,24.822
		C50.326,205.441,33.87,213.266,12.566,217.398L12.566,217.398z"/>
	<path display="inline" d="M55.706,175.432c-4.749,0-8.599-2.322-9.302-5.933l5.889-1.147c0.088,0.443,2.137,1.498,5.219,0.901
		l1.146,5.89C57.65,175.338,56.66,175.432,55.706,175.432z"/>
	<path display="inline" d="M59.824,174.643l-3.478-4.891c42.409-30.146,97.269-102.484,121.884-141
		c1.252-2.229,1.553-3.699,1.567-4.389c-0.7,0.133-2.205,0.715-4.286,2.634C128.129,67.161,68.037,139.333,52.013,170.303
		l-5.329-2.756c16.27-31.445,77.08-104.551,124.856-145.045c4.505-4.153,9.192-5.326,12.146-2.991
		c1.377,1.091,4.104,4.475-0.312,12.328C157.441,72.424,103.23,143.787,59.824,174.643z"/>
</g>
<g id="Layer_3" display="none">
	<path display="inline" d="M166.75,167.915c-0.768,0-1.535-0.293-2.121-0.879l-20.889-20.883c-0.563-0.563-0.879-1.326-0.879-2.121
		c0-0.795,0.316-1.559,0.879-2.121l114.24-114.22c1.172-1.172,3.069-1.172,4.242,0c1.172,1.172,1.172,3.072,0,4.242L150.104,144.032
		l16.646,16.641L280.085,47.335c1.172-1.172,3.069-1.172,4.242,0c1.172,1.172,1.172,3.07,0,4.242L168.871,167.036
		C168.285,167.622,167.518,167.915,166.75,167.915z"/>
	<path display="inline" d="M308.008,70.881c-0.721,0-1.44-0.258-2.016-0.778L227.383-1.153c-0.847-0.766-1.184-1.948-0.869-3.047
		c0.315-1.097,1.225-1.922,2.35-2.127c4.131-0.751,8.373-1.132,12.605-1.132c49.488,0,88.175,50.489,89.798,52.638
		c0.902,1.194,0.785,2.87-0.27,3.927L310.132,70C309.546,70.586,308.778,70.881,308.008,70.881z M236.216-1.245l71.689,64.983
		l16.947-16.972c-7.764-9.398-42.327-48.226-83.385-48.226C239.714-1.459,237.959-1.387,236.216-1.245z"/>
	<g display="inline">
		<path d="M221.602,342.186c-1.559,0-2.873-1.205-2.988-2.783l-10.641-146.66c-0.119-1.652,1.123-3.088,2.774-3.208
			c1.644-0.111,3.088,1.122,3.208,2.774l10.641,146.659c0.12,1.652-1.121,3.089-2.773,3.208
			C221.748,342.182,221.675,342.186,221.602,342.186z"/>
		<path d="M210.964,195.523c-1.657,0-3-1.342-3-3c0-30.34,21.817-33.252,44.912-36.334c1.636-0.239,3.29,0.914,3.511,2.559
			c0.219,1.641-0.798,3.132-2.441,3.352c-23.325,3.114-39.98,5.338-39.98,30.426C213.964,194.184,212.622,195.523,210.964,195.523z"
			/>
		<path fill="none" stroke="#000000" stroke-width="2" stroke-linecap="round" stroke-linejoin="round" d="M244.837,333.375"/>
		<path fill="none" stroke="#000000" stroke-width="2" stroke-linecap="round" stroke-linejoin="round" d="M221.604,339.186"/>
		<path fill="none" stroke="#000000" stroke-width="2" stroke-linecap="round" stroke-linejoin="round" d="M234.195,221.089"/>
		<path fill="none" stroke="#000000" stroke-width="2" stroke-linecap="round" stroke-linejoin="round" d="M241.934,337.257"/>
		<path d="M253.547,162.126c-1.531,0-2.842-1.169-2.984-2.726c-0.152-1.648,1.063-3.11,2.713-3.264l26.145-2.417
			c1.67-0.176,3.111,1.066,3.264,2.714c0.152,1.648-1.063,3.11-2.713,3.264l-26.145,2.417
			C253.73,162.123,253.639,162.126,253.547,162.126z"/>
		<path d="M282.718,182.941c-8.524,0-15.463-6.558-15.463-14.616c0-8.06,6.938-14.616,15.463-14.616
			c8.528,0,15.466,6.557,15.466,14.616C298.184,176.384,291.246,182.941,282.718,182.941z M282.718,159.709
			c-5.218,0-9.463,3.864-9.463,8.616s4.245,8.616,9.463,8.616c5.222,0,9.466-3.864,9.466-8.616S287.938,159.709,282.718,159.709z"/>
		<path d="M244.834,336.375c-1.553,0-2.868-1.198-2.988-2.771l-10.641-138.91c-0.126-1.652,1.109-3.094,2.763-3.221
			c1.642-0.125,3.095,1.113,3.22,2.764l10.642,138.91c0.126,1.652-1.11,3.095-2.763,3.221
			C244.988,336.372,244.91,336.375,244.834,336.375z"/>
		<path d="M253.547,185.357c-1.531,0-2.842-1.168-2.984-2.725c-0.152-1.648,1.063-3.111,2.713-3.264l26.145-2.417
			c1.67-0.164,3.111,1.063,3.264,2.713c0.153,1.649-1.063,3.11-2.713,3.265l-26.145,2.416
			C253.73,185.355,253.639,185.357,253.547,185.357z"/>
		<path d="M234.195,197.464c-1.657,0-3-1.342-3-3c0-12.753,9.117-13.657,16.445-14.388c1.771-0.176,3.605-0.357,5.391-0.674
			c1.632-0.272,3.185,0.806,3.475,2.438c0.284,1.633-0.806,3.188-2.438,3.475c-2.004,0.353-3.952,0.545-5.834,0.732
			c-8.202,0.814-11.039,1.45-11.039,8.417C237.195,196.122,235.854,197.464,234.195,197.464z"/>
		<path d="M231.826,344.83c-5.229,0-10.031-1.816-11.971-3.208c-1.346-0.964-1.655-2.839-0.688-4.187
			c0.964-1.346,2.833-1.658,4.187-0.688c1.403,1.011,7.301,3.022,12.256,1.582c3.043-0.886,5.152-2.871,6.445-6.076
			c0.62-1.538,2.381-2.271,3.904-1.661c1.538,0.621,2.279,2.37,1.661,3.905c-1.972,4.884-5.546,8.203-10.339,9.595
			C235.479,344.613,233.628,344.83,231.826,344.83z"/>
	</g>
</g>
<g id="Layer_4" display="none">
</g>
</svg>
