<?xml version="1.0" encoding="utf-8"?>
<!-- Generator: Adobe Illustrator 16.0.4, SVG Export Plug-In . SVG Version: 6.00 Build 0)  -->
<!DOCTYPE svg PUBLIC "-//W3C//DTD SVG 1.1//EN" "http://www.w3.org/Graphics/SVG/1.1/DTD/svg11.dtd">
<svg version="1.1" id="Layer_1" xmlns="http://www.w3.org/2000/svg" xmlns:xlink="http://www.w3.org/1999/xlink" x="0px" y="0px"
	 width="120px" height="120px" viewBox="0 0 120 120" enable-background="new 0 0 120 120" xml:space="preserve">
<g id="Layer_2">
	<line fill="none" stroke="#000000" stroke-miterlimit="10" x1="77.049" y1="93.869" x2="114.961" y2="77.441"/>
	<line fill="none" stroke="#000000" stroke-miterlimit="10" x1="77.049" y1="102.209" x2="114.961" y2="83.918"/>
	<polygon fill="none" stroke="#000000" stroke-miterlimit="1" points="77.049,93.869 5.86,86.035 5.86,99.43 77.049,109.033 	"/>
	<path fill="none" stroke="#000000" stroke-miterlimit="10" d="M53.797,73.818"/>
	<polyline fill="none" stroke="#000000" stroke-miterlimit="10" points="102.572,89.9 114.961,91.195 114.961,60.98 53.797,58.454 
		53.797,70.496 	"/>
	<line fill="none" stroke="#000000" stroke-miterlimit="3" x1="114.961" y1="77.441" x2="110.282" y2="77.164"/>
	<line fill="none" stroke="#000000" stroke-miterlimit="3" x1="5.979" y1="86.062" x2="11.405" y2="84.622"/>
	<polyline fill="none" stroke="#000000" stroke-miterlimit="10" points="78.607,101.459 78.607,107.98 76.771,109.124 	"/>
	<polyline fill="none" stroke="#000000" stroke-miterlimit="10" points="116.141,59.792 116.141,90.584 115.119,91.326 	"/>
	<line fill="none" stroke="#000000" stroke-miterlimit="10" x1="114.961" y1="60.98" x2="116.141" y2="59.792"/>
	<polyline fill="none" stroke="#000000" stroke-linecap="square" stroke-miterlimit="10" points="54.056,58.196 55.821,57.518 
		116.141,59.792 	"/>
</g>
<g id="Layer_3">
	<path fill="none" stroke="#000000" stroke-linecap="round" stroke-miterlimit="10" d="M56.057,70.629l-2.26-0.133l-41.449,9.43
		c-0.631,0.213-0.833,0.844-0.833,1.686v2.982l65.192,6.602l33.438-14.038v-2.332c0-0.574,0-0.88-0.576-1.039"/>
	<path fill="none" stroke="#000000" stroke-linecap="round" stroke-miterlimit="10" d="M78.854,71.975l-5.166-0.307"/>
	<path fill="none" stroke="#000000" stroke-linecap="round" stroke-miterlimit="10" d="M109.568,73.785l-12.855-0.758"/>
	<path fill="none" stroke="#000000" stroke-miterlimit="10" d="M76.707,91.195v-3.301c0-1.238,0.342-1.86,0.95-2.238"/>
	<path fill="none" stroke="#000000" stroke-miterlimit="10" d="M77.657,85.656"/>
	<line fill="none" stroke="#000000" stroke-miterlimit="10" x1="77.657" y1="85.656" x2="109.568" y2="73.785"/>
	<line fill="none" stroke="#000000" stroke-miterlimit="10" x1="77.657" y1="85.656" x2="13.255" y2="79.721"/>
</g>
<g id="Layer_4">
	<path fill="none" stroke="#000000" stroke-miterlimit="10" d="M74.085,70.496c-1.519,3.043-0.433,3.619-7.192,3.273l-6.187-0.361
		c-4.809,0.41-6.578-0.189-4.171-3.49l2.735-4.105c1.248-3.479,1.248-3.008,5.923-2.785l5.632,0.47
		c6.571-0.438,6.823,0.188,4.68,4.51L74.085,70.496z"/>
	<path fill="none" stroke="#000000" stroke-miterlimit="10" d="M97.268,71.463c-1.519,3.043-0.433,3.617-7.192,3.273l-6.187-0.361
		c-4.809,0.41-6.578-0.189-4.172-3.49l2.734-4.105c1.248-3.479,1.248-3.008,5.924-2.784l5.631,0.469
		c6.571-0.438,6.824,0.188,4.68,4.509L97.268,71.463z"/>
</g>
</svg>
