<?xml version="1.0" encoding="utf-8"?>
<!-- Generator: Adobe Illustrator 16.0.4, SVG Export Plug-In . SVG Version: 6.00 Build 0)  -->
<!DOCTYPE svg PUBLIC "-//W3C//DTD SVG 1.1//EN" "http://www.w3.org/Graphics/SVG/1.1/DTD/svg11.dtd">
<svg version="1.1" id="Layer_1" xmlns="http://www.w3.org/2000/svg" xmlns:xlink="http://www.w3.org/1999/xlink" x="0px" y="0px"
	 width="120px" height="120px" viewBox="0 0 120 120" enable-background="new 0 0 120 120" xml:space="preserve">
<g id="Layer_2">
	<line fill="none" stroke="#000000" stroke-miterlimit="10" x1="86.383" y1="18.181" x2="83.484" y2="55.861"/>
	<line fill="none" stroke="#000000" stroke-miterlimit="10" x1="83.484" y1="55.861" x2="83.484" y2="66.507"/>
	<line fill="none" stroke="#000000" stroke-miterlimit="10" x1="32.205" y1="66.507" x2="52.94" y2="64.947"/>
	<line fill="none" stroke="#000000" stroke-miterlimit="10" x1="66.764" y1="70.131" x2="83.484" y2="67.678"/>
	<line fill="none" stroke="#000000" stroke-miterlimit="10" x1="37.632" y1="68.533" x2="37.632" y2="111.229"/>
	<line fill="none" stroke="#000000" stroke-miterlimit="10" x1="37.632" y1="74.07" x2="63.643" y2="76.15"/>
	<line fill="none" stroke="#000000" stroke-miterlimit="10" x1="66.764" y1="70.131" x2="66.764" y2="115"/>
	<line fill="none" stroke="#000000" stroke-miterlimit="10" x1="83.484" y1="66.507" x2="83.484" y2="107.216"/>
	<line fill="none" stroke="#000000" stroke-miterlimit="10" x1="83.484" y1="71.988" x2="68.844" y2="75.109"/>
	<polyline fill="none" stroke="#000000" stroke-miterlimit="10" points="39.265,74.201 39.265,110.486 37.632,111.229 
		33.729,110.486 33.729,68.32 	"/>
	<line fill="none" stroke="#000000" stroke-miterlimit="10" x1="52.721" y1="75.277" x2="52.721" y2="94.185"/>
	<line fill="none" stroke="#000000" stroke-miterlimit="10" x1="55.846" y1="75.527" x2="55.846" y2="104.765"/>
	<polyline fill="none" stroke="#000000" stroke-miterlimit="10" points="39.265,98.148 54.65,93.615 54.65,95.324 39.265,100.23 	
		"/>
	<polyline fill="none" stroke="#000000" stroke-miterlimit="10" points="52.721,95.939 52.721,104.094 55.846,104.765 
		57.547,103.742 57.547,75.664 	"/>
	<polyline fill="none" stroke="#000000" stroke-miterlimit="10" points="68.844,102.014 82.314,96.439 82.314,98.148 
		68.844,104.094 	"/>
	<line fill="none" stroke="#000000" stroke-miterlimit="10" x1="80.586" y1="97.156" x2="80.586" y2="72.606"/>
	<polyline fill="none" stroke="#000000" stroke-miterlimit="10" points="68.844,69.621 68.844,114.498 66.764,115 63.643,114.498 
		63.643,69.959 	"/>
	<polyline fill="none" stroke="#000000" stroke-miterlimit="10" points="84.934,55.861 85.156,106.752 83.484,107.216 
		80.586,106.752 80.586,98.912 	"/>
	<line fill="none" stroke="#000000" stroke-miterlimit="10" x1="83.484" y1="66.507" x2="52.94" y2="64.947"/>
	<line fill="none" stroke="#000000" stroke-miterlimit="10" x1="80.586" y1="55.861" x2="80.586" y2="66.341"/>
	<line fill="none" stroke="#000000" stroke-miterlimit="10" x1="52.94" y1="64.947" x2="52.94" y2="53.854"/>
	<line fill="none" stroke="#000000" stroke-miterlimit="10" x1="56.059" y1="65.106" x2="56.059" y2="53.854"/>
	<line fill="none" stroke="#000000" stroke-miterlimit="10" x1="57.476" y1="65.179" x2="57.476" y2="53.854"/>
	<polyline fill="none" stroke="#000000" stroke-miterlimit="10" points="82.691,28.475 59.098,28.475 59.532,23.718 83.074,23.529 	
		"/>
	<line fill="none" stroke="#000000" stroke-miterlimit="10" x1="57.476" y1="53.854" x2="58.223" y2="45.41"/>
	<line fill="none" stroke="#000000" stroke-miterlimit="10" x1="56.059" y1="53.854" x2="58.999" y2="18.925"/>
	<line fill="none" stroke="#000000" stroke-miterlimit="10" x1="59.758" y1="28.475" x2="58.628" y2="40.943"/>
	<polyline fill="none" stroke="#000000" stroke-miterlimit="10" points="81.703,41.334 58.036,40.924 57.663,45.383 81.316,46.38 	
		"/>
	<polyline fill="none" stroke="#000000" stroke-miterlimit="10" points="60.164,23.675 60.521,19.445 58.999,18.925 56.059,18.925 
		52.94,53.854 	"/>
	<polyline fill="none" stroke="#000000" stroke-miterlimit="10" points="84.934,55.861 87.795,18.367 86.383,18.181 83.484,18.181 
		80.586,55.861 	"/>
	<path fill="none" stroke="#000000" stroke-miterlimit="10" d="M32.205,68.508"/>
	<line fill="none" stroke="#000000" stroke-miterlimit="10" x1="66.764" y1="68.533" x2="66.764" y2="70.131"/>
	<line fill="none" stroke="#000000" stroke-miterlimit="10" x1="66.764" y1="68.533" x2="83.484" y2="66.507"/>
	<polyline fill="none" stroke="#000000" stroke-miterlimit="10" points="66.764,70.131 32.205,68.234 32.205,66.507 66.764,68.533 	
		"/>
</g>
</svg>
