<?xml version="1.0" encoding="utf-8"?>
<!-- Generator: Adobe Illustrator 16.0.4, SVG Export Plug-In . SVG Version: 6.00 Build 0)  -->
<!DOCTYPE svg PUBLIC "-//W3C//DTD SVG 1.1//EN" "http://www.w3.org/Graphics/SVG/1.1/DTD/svg11.dtd">
<svg version="1.1" id="Layer_1" xmlns="http://www.w3.org/2000/svg" xmlns:xlink="http://www.w3.org/1999/xlink" x="0px" y="0px"
	 width="120px" height="120px" viewBox="0 0 120 120" enable-background="new 0 0 120 120" xml:space="preserve">
<g id="Layer_2">
	<polyline fill="none" stroke="#000000" stroke-miterlimit="10" points="12.868,51.433 12.868,56.005 88.562,61.052 	"/>
	<line fill="none" stroke="#000000" stroke-miterlimit="10" x1="11.922" y1="51.433" x2="11.922" y2="104.222"/>
	<polyline fill="none" stroke="#000000" stroke-miterlimit="10" points="13.841,56.07 13.841,103.63 11.922,104.222 10.147,103.63 
		10.147,50.88 	"/>
	<path fill="none" stroke="#000000" stroke-miterlimit="10" d="M10.147,103.63"/>
	<path fill="none" stroke="#000000" stroke-miterlimit="10" d="M11.922,104.222"/>
	<line fill="none" stroke="#000000" stroke-miterlimit="10" x1="90.77" y1="56.005" x2="90.77" y2="116.876"/>
	<line fill="none" stroke="#000000" stroke-miterlimit="10" x1="109.062" y1="50.88" x2="109.062" y2="102.368"/>
	<polyline fill="none" stroke="#000000" stroke-miterlimit="10" points="88.562,56.005 88.562,116.363 90.77,116.876 
		92.978,115.733 92.978,56.005 	"/>
	<polyline fill="none" stroke="#000000" stroke-miterlimit="10" points="106.382,56.438 106.382,101.974 109.062,102.368 
		110.482,101.461 110.482,50.229 	"/>
	<line fill="none" stroke="#000000" stroke-miterlimit="10" x1="92.406" y1="56.438" x2="92.406" y2="54.546"/>
	<polyline fill="none" stroke="#000000" stroke-linecap="square" stroke-miterlimit="10" points="92.406,54.546 111.626,48.634 
		111.626,49.933 92.579,56.382 	"/>
	<polyline fill="none" stroke="#000000" stroke-miterlimit="10" points="92.406,56.438 8.374,50.88 8.374,49.579 92.406,54.546 	"/>
	<line fill="none" stroke="#000000" stroke-miterlimit="10" x1="109.062" y1="55.492" x2="92.978" y2="61.052"/>
	<polyline fill="none" stroke="#000000" stroke-miterlimit="10" points="8.374,49.579 38.73,45.124 111.626,48.634 	"/>
	<line fill="none" stroke="#000000" stroke-miterlimit="10" x1="38.736" y1="57.729" x2="38.736" y2="92.513"/>
	<polyline fill="none" stroke="#000000" stroke-miterlimit="10" points="40.16,57.824 40.16,92.117 38.736,92.896 36.931,92.513 
		36.931,57.609 	"/>
</g>
</svg>
