<?xml version="1.0" encoding="utf-8"?>
<!-- Generator: Adobe Illustrator 15.1.0, SVG Export Plug-In . SVG Version: 6.00 Build 0)  -->
<!DOCTYPE svg PUBLIC "-//W3C//DTD SVG 1.0//EN" "http://www.w3.org/TR/2001/REC-SVG-20010904/DTD/svg10.dtd">
<svg version="1.0" id="Layer_1" xmlns="http://www.w3.org/2000/svg" xmlns:xlink="http://www.w3.org/1999/xlink" x="0px" y="0px"
	 width="800px" height="600px" viewBox="0 0 800 600" enable-background="new 0 0 800 600" xml:space="preserve">
<g id="Layer_2">
	<line fill="none" stroke="#000000" stroke-width="3" stroke-miterlimit="10" x1="577.334" y1="238.333" x2="577.334" y2="364"/>
	
		<line fill="none" stroke="#000000" stroke-width="3" stroke-linecap="round" stroke-miterlimit="10" x1="218" y1="234.667" x2="218" y2="308.667"/>
	
		<line fill="none" stroke="#000000" stroke-width="3" stroke-linecap="round" stroke-miterlimit="10" x1="534" y1="238.333" x2="534" y2="324.334"/>
	<line fill="none" stroke="#000000" stroke-width="3" stroke-miterlimit="10" x1="279.333" y1="268" x2="534" y2="279"/>
	<line fill="none" stroke="#000000" stroke-width="3" stroke-miterlimit="10" x1="570.667" y1="216.951" x2="541" y2="222.833"/>
	<path fill="none" stroke="#000000" stroke-width="3" stroke-miterlimit="10" d="M618.667,224v110l-41.333,30l-384.667-22.667
		c-3.685,0-6.667-5.665-6.667-12.666v-94"/>
	<path fill="none" stroke="#000000" stroke-width="3" stroke-miterlimit="10" d="M234.25,270.25c-12.25,0-16.25,7.25-16.25,18.5"/>
	<line fill="none" stroke="#000000" stroke-width="3" stroke-miterlimit="10" x1="279.333" y1="268" x2="234.25" y2="270.25"/>
	<path fill="none" stroke="#000000" stroke-width="3" stroke-miterlimit="10" d="M186,234.667c0-8.844,5.625-14.542,14-16l70-6
		l339.167,4.833"/>
	<path fill="none" stroke="#000000" stroke-width="3" stroke-miterlimit="10" d="M293.087,215.667L230.75,223.5
		c-7.5,1.667-12.75,4.994-12.75,11.167"/>
	<path fill="none" stroke="#000000" stroke-width="3" stroke-miterlimit="10" d="M534,238.333c0-8.567,0-13.5,7-15.5"/>
	<path fill="none" stroke="#000000" stroke-width="3" stroke-miterlimit="10" d="M618.667,224c0-2.395-1.577-6.5-9.5-6.5l-29.5,8.5
		c-2.333,3.667-2.333,7.5-2.333,12.333"/>
	<path fill="none" stroke="#000000" stroke-width="3" stroke-miterlimit="10" d="M303.628,213.146
		c-7.826,0-12.479,3.115-14.781,6.229L279.333,268"/>
	<path fill="none" stroke="#000000" stroke-width="3" stroke-miterlimit="10" d="M208.528,342.268v19.482c0,0,4.555,1.083,10.479,0
		v-18.865"/>
	<path fill="none" stroke="#000000" stroke-width="3" stroke-miterlimit="10" d="M553.521,362.597v22.388c0,0,4.555,1.083,10.479,0
		v-21.771"/>
	<path fill="none" stroke="#000000" stroke-width="3" stroke-miterlimit="10" d="M588.896,355.607v6.56c0,0,4.555,1.083,10.479,0
		v-14.165"/>
</g>
<line fill="none" stroke="#000000" stroke-width="3" stroke-linecap="square" stroke-miterlimit="10" x1="534" y1="324.334" x2="218" y2="308.667"/>
</svg>
